<?xml version="1.0" encoding="utf-8"?>
<!-- Generator: Adobe Illustrator 27.5.0, SVG Export Plug-In . SVG Version: 6.00 Build 0)  -->
<svg version="1.1" xmlns="http://www.w3.org/2000/svg" xmlns:xlink="http://www.w3.org/1999/xlink" x="0px" y="0px"
	 viewBox="0 0 500 500" style="enable-background:new 0 0 500 500;" xml:space="preserve">
<g id="BACKGROUND">
	<rect style="fill:#FFFFFF;" width="500" height="500"/>
	<g>
		<path style="fill:#B6CECF;" d="M0,433.508c0,0,199.821-124.753,247.571-123.933c47.75,0.82,114.48,73.293,141.44,66.689
			c26.96-6.604,73.897-190.575,110.336-203.018L500,433.508H0z"/>
		<rect y="433.508" style="fill:#338383;" width="500" height="66.492"/>
	</g>
</g>
<g id="OBJECTS">
	<defs>
		<rect id="SVGID_1_" width="500" height="500"/>
	</defs>
	<clipPath id="SVGID_00000178902398024427162250000016364135781452094387_">
		<use xlink:href="#SVGID_1_"  style="overflow:visible;"/>
	</clipPath>
	<g style="clip-path:url(#SVGID_00000178902398024427162250000016364135781452094387_);">
		<g>
			<g>
				<g>
					<g>
						<g>
							<path style="fill:#B6CECF;" d="M312.927,324.164l3.976-4.139l-3.205-5.778l-5.202,0.893c-0.001,0-0.003,0-0.004-0.001
								c-0.683-0.738-1.423-1.416-2.215-2.027c-0.001-0.001-0.002-0.002-0.002-0.004l0.662-4.816l-6.113-2.78l-3.911,3.868l0,0
								c-0.931-0.1-1.876-0.131-2.829-0.09v0c0,0-3.436-4.617-3.436-4.617l-6.488,2.089l-0.199,5.91
								c0,0.002-0.001,0.003-0.002,0.004c-0.956,0.66-1.838,1.401-2.642,2.207c-0.001,0.001-0.003,0.002-0.004,0.002l-6.07-0.238
								l-2.506,6.198l3.619,2.98c0.001,0.001,0.002,0.003,0.002,0.005c-0.164,0.722-0.288,1.455-0.362,2.196
								c0,0.002-0.001,0.003-0.003,0.005l-5.214,3.727l2.023,6.282l5.223,0.071c0.002,0,0.004,0.001,0.004,0.003
								c0.361,0.669,0.758,1.311,1.195,1.918c0.001,0.002,0.001,0.004,0.001,0.005l-1.915,5.356l5.386,3.938l4.646-3.049
								c0,0,0,0,0,0c0.629,0.246,1.273,0.46,1.929,0.637l2.015,5.237l6.791-0.373l1.431-4.573c0.086-0.273,0.302-0.481,0.575-0.569
								c0.001-0.001,0.003-0.001,0.004-0.001c0.653-0.21,1.285-0.454,1.898-0.725l4.342,2.878l5.444-4.062l-1.785-5.455
								c0.407-0.596,0.779-1.213,1.113-1.849v0l5.46-0.518l1.616-6.459l-5.087-3.119l0,0
								C313.048,324.942,312.992,324.553,312.927,324.164z M284.075,330.583c-1.753-5.446,1.325-11.309,6.876-13.096
								c5.551-1.787,11.473,1.178,13.226,6.624c1.753,5.446-1.325,11.309-6.876,13.096
								C291.75,338.994,285.828,336.028,284.075,330.583z"/>
						</g>
					</g>
				</g>
				<path style="fill:#B6CECF;" d="M300.876,327.251c0,3.722-3.017,6.74-6.74,6.74c-3.722,0-6.74-3.017-6.74-6.74
					c0-3.722,3.017-6.74,6.74-6.74C297.859,320.512,300.876,323.529,300.876,327.251z"/>
			</g>
		</g>
		<g>
			<g>
				<g>
					<g>
						<g>
							<path style="fill:#B6CECF;" d="M47.13,410.247l3.976-4.139l-3.205-5.778l-5.202,0.893c-0.001,0-0.003,0-0.004-0.001
								c-0.683-0.738-1.423-1.416-2.215-2.026c-0.001-0.001-0.002-0.002-0.002-0.004l0.662-4.816l-6.113-2.779l-3.911,3.867l0,0
								c-0.931-0.1-1.876-0.131-2.829-0.09h0c0,0-3.436-4.617-3.436-4.617l-6.488,2.089l-0.199,5.91
								c0,0.002-0.001,0.003-0.002,0.004c-0.956,0.66-1.838,1.401-2.642,2.207c-0.001,0.001-0.002,0.002-0.004,0.002l-6.07-0.239
								l-2.506,6.198l3.619,2.98c0.001,0.001,0.002,0.003,0.002,0.005c-0.164,0.722-0.288,1.455-0.362,2.196
								c0,0.002-0.001,0.004-0.003,0.005l-5.214,3.727l2.023,6.282l5.223,0.071c0.002,0,0.003,0.001,0.004,0.003
								c0.361,0.669,0.758,1.311,1.195,1.918c0.001,0.002,0.002,0.004,0.001,0.005l-1.915,5.356l5.386,3.937l4.646-3.049h0
								c0.629,0.246,1.273,0.46,1.929,0.637l2.015,5.237l6.791-0.373l1.431-4.573c0.086-0.273,0.302-0.481,0.575-0.569
								c0.001,0,0.003-0.001,0.005-0.001c0.653-0.21,1.285-0.454,1.898-0.725l4.342,2.878l5.443-4.062l-1.785-5.455
								c0.407-0.596,0.779-1.213,1.113-1.849l0,0l5.46-0.519l1.616-6.459l-5.087-3.119l0,0
								C47.251,411.025,47.196,410.636,47.13,410.247z M18.278,416.666c-1.753-5.445,1.325-11.309,6.876-13.096
								c5.551-1.787,11.473,1.178,13.226,6.624c1.753,5.445-1.325,11.309-6.876,13.096
								C25.953,425.077,20.032,422.112,18.278,416.666z"/>
						</g>
					</g>
				</g>
				<path style="fill:#B6CECF;" d="M35.079,413.335c0,3.722-3.017,6.74-6.739,6.74c-3.722,0-6.74-3.017-6.74-6.74
					c0-3.722,3.017-6.74,6.74-6.74C32.062,406.595,35.079,409.613,35.079,413.335z"/>
			</g>
		</g>
		<g>
			<g>
				<g>
					<g>
						<g>
							<path style="fill:#B6CECF;" d="M34.056,368.608l2.525-2.628l-2.035-3.669l-3.304,0.567c-0.001,0-0.002,0-0.002-0.001
								c-0.434-0.469-0.903-0.899-1.407-1.287c-0.001-0.001-0.001-0.002-0.001-0.003l0.421-3.059l-3.882-1.765l-2.484,2.456l0,0
								c-0.591-0.063-1.191-0.083-1.797-0.057l0,0c0,0-2.182-2.932-2.182-2.932l-4.12,1.327l-0.127,3.753
								c0,0.001,0,0.002-0.001,0.003c-0.607,0.419-1.167,0.89-1.678,1.402c-0.001,0.001-0.002,0.001-0.003,0.001l-3.855-0.151
								L8.534,366.5l2.298,1.893c0.001,0.001,0.001,0.002,0.001,0.003c-0.104,0.459-0.183,0.924-0.23,1.394
								c0,0.001-0.001,0.002-0.002,0.003l-3.311,2.367l1.284,3.989l3.317,0.045c0.001,0,0.002,0.001,0.003,0.002
								c0.229,0.425,0.481,0.832,0.759,1.218c0.001,0.001,0.001,0.002,0.001,0.004l-1.216,3.401l3.42,2.5l2.95-1.936l0,0
								c0.4,0.156,0.808,0.292,1.225,0.404l1.28,3.326l4.312-0.237l0.909-2.904c0.054-0.173,0.192-0.306,0.365-0.361
								c0.001,0,0.002-0.001,0.003-0.001c0.414-0.134,0.816-0.288,1.205-0.46l2.757,1.828l3.457-2.58l-1.133-3.464
								c0.258-0.379,0.495-0.77,0.706-1.174l0,0l3.467-0.329l1.026-4.101l-3.23-1.98l0,0
								C34.133,369.102,34.098,368.855,34.056,368.608z M15.735,372.684c-1.113-3.458,0.841-7.181,4.367-8.317
								c3.525-1.135,7.285,0.748,8.399,4.206c1.114,3.458-0.842,7.181-4.367,8.317C20.608,378.026,16.848,376.142,15.735,372.684z"
								/>
						</g>
					</g>
				</g>
				<circle style="fill:#B6CECF;" cx="22.124" cy="370.569" r="4.28"/>
			</g>
		</g>
		<g>
			<g>
				<g>
					<g>
						<path style="fill:#B4CFCF;" d="M495.215,119.52l4.847-5.046l-3.907-7.043l-6.342,1.088c-0.002,0-0.004,0-0.005-0.002
							c-0.832-0.899-1.734-1.727-2.7-2.471c-0.001-0.001-0.002-0.003-0.002-0.005l0.807-5.871l-7.452-3.388l-4.768,4.715l0,0
							c-1.135-0.122-2.287-0.159-3.449-0.11c0,0,0,0,0,0c0-0.001-4.189-5.628-4.189-5.628l-7.909,2.547l-0.243,7.205
							c0,0.002-0.001,0.004-0.003,0.005c-1.166,0.804-2.24,1.709-3.221,2.691c-0.001,0.001-0.003,0.002-0.005,0.002l-7.4-0.291
							l-3.055,7.556l4.412,3.633c0.002,0.001,0.002,0.004,0.002,0.006c-0.2,0.881-0.352,1.773-0.441,2.677
							c0,0.002-0.001,0.004-0.003,0.006l-6.356,4.544l2.466,7.658l6.368,0.087c0.002,0,0.004,0.001,0.005,0.003
							c0.44,0.815,0.924,1.598,1.457,2.338c0.001,0.002,0.002,0.005,0.001,0.007l-2.335,6.529l6.566,4.8l5.664-3.717c0,0,0,0,0,0
							c0.767,0.3,1.552,0.56,2.352,0.776l2.456,6.385l8.279-0.455l1.745-5.575c0.104-0.333,0.369-0.587,0.701-0.694
							c0.002-0.001,0.004-0.001,0.005-0.002c0.796-0.256,1.566-0.553,2.314-0.883l5.293,3.509l6.636-4.952l-2.176-6.65
							c0.496-0.727,0.95-1.478,1.356-2.254h0l6.656-0.632l1.97-7.874l-6.202-3.802l0,0
							C495.363,120.469,495.296,119.994,495.215,119.52z M460.043,127.345c-2.138-6.638,1.616-13.786,8.383-15.965
							c6.767-2.179,13.986,1.436,16.124,8.075c2.138,6.638-1.616,13.786-8.383,15.965
							C469.399,137.599,462.18,133.984,460.043,127.345z"/>
					</g>
				</g>
			</g>
			
				<ellipse transform="matrix(0.2752 -0.9614 0.9614 0.2752 223.8226 543.4382)" style="fill:#B4CFCF;" cx="472.309" cy="123.284" rx="8.216" ry="8.216"/>
		</g>
		<g>
			<g>
				<g>
					<g>
						<g>
							<g>
								<g>
									<path style="fill:#B6CECF;" d="M475.628,170.399l2.441-2.541l-1.967-3.547l-3.194,0.548c-0.001,0-0.002,0-0.002-0.001
										c-0.419-0.453-0.873-0.87-1.36-1.244c-0.001-0.001-0.001-0.001-0.001-0.002l0.407-2.957l-3.753-1.706l-2.401,2.374l0,0
										c-0.572-0.061-1.152-0.08-1.737-0.055l0,0c0,0-2.109-2.834-2.109-2.834l-3.983,1.282l-0.122,3.628
										c0,0.001-0.001,0.002-0.001,0.002c-0.587,0.405-1.128,0.86-1.622,1.355c-0.001,0.001-0.001,0.001-0.003,0.001l-3.726-0.146
										l-1.539,3.805l2.222,1.829c0.001,0.001,0.001,0.002,0.001,0.003c-0.101,0.443-0.177,0.893-0.222,1.348
										c0,0.001-0.001,0.002-0.002,0.003l-3.201,2.288l1.242,3.856l3.207,0.044c0.001,0,0.002,0.001,0.003,0.002
										c0.221,0.41,0.465,0.805,0.733,1.178c0.001,0.001,0.001,0.002,0,0.003l-1.176,3.288l3.306,2.417l2.852-1.872l0,0
										c0.386,0.151,0.781,0.282,1.184,0.391l1.237,3.215l4.169-0.229l0.879-2.807c0.052-0.168,0.186-0.296,0.353-0.349
										c0.001,0,0.002-0.001,0.003-0.001c0.401-0.129,0.789-0.279,1.165-0.445l2.665,1.767l3.342-2.494l-1.095-3.349
										c0.25-0.366,0.478-0.744,0.683-1.135v0l3.352-0.318l0.992-3.965l-3.123-1.915l0,0
										C475.702,170.877,475.668,170.638,475.628,170.399z M457.916,174.34c-1.076-3.343,0.814-6.943,4.221-8.04
										c3.408-1.097,7.043,0.723,8.119,4.066c1.076,3.343-0.814,6.943-4.221,8.04C462.628,179.503,458.993,177.683,457.916,174.34
										z"/>
								</g>
							</g>
						</g>
					</g>
				</g>
				<g>
					<path style="fill:#B6CECF;" d="M468.23,172.295c0,2.285-1.852,4.137-4.137,4.137c-2.285,0-4.137-1.852-4.137-4.137
						c0-2.285,1.852-4.137,4.137-4.137C466.378,168.157,468.23,170.01,468.23,172.295z"/>
				</g>
			</g>
		</g>
		<g>
			<g>
				<g>
					<g>
						<g>
							<path style="fill:#B6CECF;" d="M330.984,298.668l2.23-2.321l-1.797-3.24l-2.918,0.501c-0.001,0-0.002,0-0.002-0.001
								c-0.383-0.414-0.798-0.794-1.242-1.137c-0.001-0.001-0.001-0.001-0.001-0.002l0.372-2.701l-3.428-1.559l-2.193,2.169v0
								c-0.522-0.056-1.052-0.073-1.587-0.051l0,0c0,0-1.927-2.589-1.927-2.589l-3.639,1.172l-0.112,3.315
								c0,0.001,0,0.002-0.001,0.002c-0.536,0.37-1.031,0.786-1.482,1.238c-0.001,0.001-0.001,0.001-0.002,0.001l-3.404-0.134
								l-1.406,3.476l2.03,1.671c0.001,0.001,0.001,0.002,0.001,0.003c-0.092,0.405-0.162,0.816-0.203,1.231
								c0,0.001-0.001,0.002-0.001,0.003l-2.924,2.09l1.134,3.523l2.929,0.04c0.001,0,0.002,0.001,0.003,0.001
								c0.202,0.375,0.425,0.735,0.67,1.076c0.001,0.001,0.001,0.002,0,0.003l-1.074,3.004l3.021,2.208l2.606-1.71l0,0
								c0.353,0.138,0.714,0.258,1.082,0.357l1.13,2.937l3.809-0.209l0.803-2.565c0.048-0.153,0.169-0.27,0.322-0.319
								c0.001,0,0.002-0.001,0.002-0.001c0.366-0.118,0.721-0.255,1.064-0.406l2.435,1.614l3.053-2.278l-1.001-3.059
								c0.228-0.334,0.437-0.68,0.624-1.037l0,0l3.062-0.291l0.906-3.622l-2.853-1.749l0,0
								C331.052,299.104,331.02,298.886,330.984,298.668z M314.803,302.268c-0.983-3.054,0.743-6.342,3.856-7.345
								c3.113-1.002,6.434,0.661,7.418,3.715c0.983,3.054-0.743,6.342-3.857,7.345C319.107,306.985,315.786,305.322,314.803,302.268
								z"/>
						</g>
					</g>
				</g>
				<path style="fill:#B6CECF;" d="M324.225,300.4c0,2.087-1.692,3.78-3.78,3.78c-2.087,0-3.78-1.692-3.78-3.78
					s1.692-3.78,3.78-3.78C322.533,296.62,324.225,298.312,324.225,300.4z"/>
			</g>
		</g>
		<g>
			<g>
				<g>
					<g>
						<g>
							<path style="fill:#B6CECF;" d="M352.718,327.182l2.812-2.927l-2.266-4.086l-3.679,0.631c-0.001,0-0.002,0-0.003-0.001
								c-0.483-0.522-1.006-1.001-1.566-1.433c-0.001-0.001-0.001-0.002-0.001-0.003l0.469-3.406l-4.323-1.965l-2.766,2.735l0,0
								c-0.658-0.071-1.327-0.092-2-0.064l0,0c0,0-2.43-3.265-2.43-3.265l-4.588,1.477l-0.141,4.179
								c0,0.001-0.001,0.002-0.002,0.003c-0.676,0.467-1.299,0.991-1.868,1.561c-0.001,0.001-0.002,0.001-0.003,0.001l-4.292-0.169
								l-1.772,4.383l2.559,2.107c0.001,0.001,0.002,0.002,0.001,0.003c-0.116,0.511-0.204,1.029-0.256,1.553
								c0,0.001-0.001,0.003-0.002,0.003l-3.687,2.636l1.43,4.442l3.694,0.051c0.001,0,0.002,0.001,0.003,0.002
								c0.255,0.473,0.536,0.927,0.845,1.356c0.001,0.001,0.001,0.003,0.001,0.004l-1.354,3.787l3.809,2.784l3.285-2.156l0,0
								c0.445,0.174,0.9,0.325,1.364,0.45l1.425,3.704l4.802-0.264l1.012-3.234c0.06-0.193,0.214-0.34,0.406-0.402
								c0.001,0,0.002-0.001,0.003-0.001c0.461-0.149,0.909-0.321,1.342-0.512l3.07,2.035l3.849-2.872l-1.262-3.857
								c0.288-0.422,0.551-0.858,0.787-1.307v0l3.861-0.367l1.143-4.567l-3.597-2.205l0,0
								C352.804,327.732,352.765,327.457,352.718,327.182z M332.316,331.721c-1.24-3.851,0.937-7.997,4.862-9.261
								c3.925-1.264,8.113,0.833,9.353,4.684c1.24,3.851-0.937,7.997-4.863,9.261C337.743,337.669,333.556,335.572,332.316,331.721z
								"/>
						</g>
					</g>
				</g>
				<path style="fill:#B6CECF;" d="M344.197,329.366c0,2.632-2.134,4.766-4.766,4.766c-2.632,0-4.766-2.134-4.766-4.766
					c0-2.632,2.134-4.766,4.766-4.766C342.063,324.6,344.197,326.733,344.197,329.366z"/>
			</g>
		</g>
	</g>
	<g style="clip-path:url(#SVGID_00000178902398024427162250000016364135781452094387_);">
		<path style="fill:#F4ECCE;stroke:#C6CACF;stroke-miterlimit:10;" d="M158.684,252.397H18.446c-2.969,0-5.376-2.407-5.376-5.376
			V46.623c0-2.969,2.407-5.376,5.376-5.376h140.238c2.969,0,5.376,2.407,5.376,5.376v200.398
			C164.06,249.99,161.653,252.397,158.684,252.397z"/>
		<g>
			<g>
				
					<ellipse transform="matrix(0.7071 -0.7071 0.7071 0.7071 -44.6983 47.3488)" style="opacity:0.6;fill:#013E60;" cx="34.806" cy="77.63" rx="12.932" ry="12.932"/>
				<g>
					<path style="fill:#013E60;" d="M37.323,85.674c3.72-1.341,3.058-4.206,1.721-6.885c-0.679-1.359-1.52-2.67-2.508-3.91
						c-0.427-0.535-1.009-1.115-1.823-1.127c-0.886-0.013-1.509,0.65-1.939,1.25c-1.819,2.535-5.183,7.402-1.846,9.989
						c1.404,1.088,3.643,1.429,5.53,0.948C36.77,85.857,37.058,85.769,37.323,85.674z"/>
					<path style="fill:#0D4C68;" d="M38.381,72.618c0,1.938-1.571,3.508-3.508,3.508c-1.938,0-3.508-1.571-3.508-3.508
						c0-1.938,1.571-3.508,3.508-3.508C36.81,69.109,38.381,70.68,38.381,72.618z"/>
				</g>
			</g>
			<g>
				<path style="fill:#FFFFFF;" d="M141.558,64.664H66.563c-3.355,0-6.075,2.72-6.075,6.075v3.737l-7.041,5.475h7.041v2.871
					c0,3.355,2.72,6.075,6.075,6.075h74.995c3.355,0,6.075-2.72,6.075-6.075V70.739C147.633,67.384,144.913,64.664,141.558,64.664z"
					/>
				
					<line style="opacity:0.23;fill:none;stroke:#013E60;stroke-width:2;stroke-linecap:round;stroke-linejoin:round;stroke-miterlimit:10;" x1="68.992" y1="71.863" x2="141.342" y2="71.863"/>
				
					<line style="opacity:0.23;fill:none;stroke:#013E60;stroke-width:2;stroke-linecap:round;stroke-linejoin:round;stroke-miterlimit:10;" x1="68.992" y1="76.126" x2="141.342" y2="76.126"/>
				
					<line style="opacity:0.23;fill:none;stroke:#013E60;stroke-width:2;stroke-linecap:round;stroke-linejoin:round;stroke-miterlimit:10;" x1="68.817" y1="79.951" x2="117.924" y2="79.951"/>
			</g>
		</g>
		<g>
			<g>
				
					<ellipse transform="matrix(0.7071 -0.7071 0.7071 0.7071 -117.3111 77.8121)" style="opacity:0.6;fill:#013E60;" cx="35.272" cy="180.513" rx="12.932" ry="12.932"/>
				<g>
					<path style="fill:#013E60;" d="M37.789,188.557c3.72-1.341,3.058-4.206,1.721-6.885c-0.679-1.359-1.52-2.67-2.508-3.91
						c-0.426-0.535-1.009-1.115-1.823-1.127c-0.886-0.013-1.509,0.65-1.939,1.25c-1.819,2.535-5.183,7.402-1.846,9.989
						c1.404,1.088,3.643,1.429,5.53,0.948C37.236,188.74,37.524,188.652,37.789,188.557z"/>
					<path style="fill:#0D4C68;" d="M38.847,175.501c0,1.938-1.571,3.508-3.508,3.508c-1.938,0-3.508-1.571-3.508-3.508
						c0-1.938,1.571-3.508,3.508-3.508C37.276,171.993,38.847,173.563,38.847,175.501z"/>
				</g>
			</g>
			<g>
				<path style="fill:#FFFFFF;" d="M142.024,167.547H67.029c-3.355,0-6.075,2.72-6.075,6.075v3.737l-7.041,5.475h7.041v2.871
					c0,3.355,2.72,6.075,6.075,6.075h74.995c3.355,0,6.075-2.72,6.075-6.075v-12.082
					C148.099,170.267,145.379,167.547,142.024,167.547z"/>
				
					<line style="opacity:0.23;fill:none;stroke:#013E60;stroke-width:2;stroke-linecap:round;stroke-linejoin:round;stroke-miterlimit:10;" x1="69.458" y1="174.746" x2="141.808" y2="174.746"/>
				
					<line style="opacity:0.23;fill:none;stroke:#013E60;stroke-width:2;stroke-linecap:round;stroke-linejoin:round;stroke-miterlimit:10;" x1="69.458" y1="179.009" x2="141.808" y2="179.009"/>
				
					<line style="opacity:0.23;fill:none;stroke:#013E60;stroke-width:2;stroke-linecap:round;stroke-linejoin:round;stroke-miterlimit:10;" x1="69.283" y1="182.834" x2="93.371" y2="182.834"/>
				
					<line style="opacity:0.23;fill:none;stroke:#013E60;stroke-width:2;stroke-linecap:round;stroke-linejoin:round;stroke-miterlimit:10;" x1="107.73" y1="182.834" x2="131.817" y2="182.834"/>
			</g>
		</g>
		<g>
			<g>
				<circle style="opacity:0.6;fill:#A8608D;" cx="143.155" cy="131.805" r="12.932"/>
				<g>
					<path style="opacity:0.6;fill:#A8608D;" d="M145.673,139.848c3.72-1.341,3.059-4.206,1.721-6.885
						c-0.679-1.359-1.52-2.67-2.508-3.91c-0.427-0.535-1.01-1.115-1.823-1.127c-0.886-0.013-1.509,0.65-1.939,1.25
						c-1.819,2.535-5.183,7.402-1.846,9.989c1.404,1.088,3.643,1.43,5.53,0.948C145.119,140.032,145.407,139.944,145.673,139.848z"
						/>
					<circle style="fill:#A8608D;" cx="143.222" cy="126.793" r="3.508"/>
				</g>
			</g>
			<g>
				<path style="fill:#FFFFFF;" d="M35.659,118.185h75.903c3.396,0,6.149,2.72,6.149,6.075v3.737l7.126,5.475h-7.126v2.871
					c0,3.355-2.753,6.075-6.149,6.075H35.659c-3.396,0-6.149-2.72-6.149-6.075V124.26C29.51,120.905,32.263,118.185,35.659,118.185z
					"/>
				
					<line style="opacity:0.23;fill:none;stroke:#013E60;stroke-width:2;stroke-linecap:round;stroke-linejoin:round;stroke-miterlimit:10;" x1="109.666" y1="124.295" x2="36.441" y2="124.295"/>
				
					<line style="opacity:0.23;fill:none;stroke:#013E60;stroke-width:2;stroke-linecap:round;stroke-linejoin:round;stroke-miterlimit:10;" x1="109.29" y1="128.558" x2="36.065" y2="128.558"/>
				
					<line style="opacity:0.23;fill:none;stroke:#013E60;stroke-width:2;stroke-linecap:round;stroke-linejoin:round;stroke-miterlimit:10;" x1="109.523" y1="136.308" x2="36.298" y2="136.308"/>
				
					<line style="opacity:0.23;fill:none;stroke:#013E60;stroke-width:2;stroke-linecap:round;stroke-linejoin:round;stroke-miterlimit:10;" x1="109.467" y1="132.382" x2="59.766" y2="132.382"/>
			</g>
		</g>
		<path style="opacity:0.15;fill:#013E60;" d="M153.957,247.696H24.47c-1.177,0-2.13-0.954-2.13-2.13v-14.598
			c0-1.177,0.954-2.13,2.13-2.13h129.487c1.177,0,2.13,0.954,2.13,2.13v14.598C156.087,246.742,155.134,247.696,153.957,247.696z"/>
		<path style="opacity:0.15;fill:#013E60;" d="M150.429,238.267c0,3.471-2.814,6.285-6.285,6.285c-3.471,0-6.285-2.814-6.285-6.285
			c0-3.471,2.814-6.285,6.285-6.285C147.615,231.982,150.429,234.796,150.429,238.267z"/>
		<polygon style="opacity:0.6;fill:#013E60;" points="140.555,238.179 146.468,235.348 145.623,241.465 143.512,240.067 
			144.749,237.533 142.652,239.455 		"/>
		<path style="fill:#FFFFFF;" d="M129.458,244.551H31.361c-1.802,0-3.262-1.46-3.262-3.262v-4.863c0-1.802,1.46-3.262,3.262-3.262
			h98.097c1.802,0,3.262,1.461,3.262,3.262v4.863C132.72,243.091,131.26,244.551,129.458,244.551z"/>
	</g>
	<g style="clip-path:url(#SVGID_00000178902398024427162250000016364135781452094387_);">
		<g>
			<g>
				<rect x="200.736" y="58.548" style="fill:#B3CDD2;" width="13.021" height="39.834"/>
				<rect x="216.387" y="49.946" style="fill:#B4CFCF;" width="13.021" height="48.28"/>
				<rect x="232.121" y="48.138" style="fill:#B3CDD2;" width="13.021" height="50.255"/>
				<rect x="247.758" y="49.948" style="fill:#B4CFCF;" width="13.021" height="48.28"/>
				<rect x="263.451" y="40.017" style="fill:#B4CFCF;" width="13.021" height="58.156"/>
				<rect x="279.472" y="27.507" style="fill:#B4CFCF;" width="13.021" height="70.666"/>
			</g>
			<rect x="185.725" y="100.043" style="fill:#B3CDD2;" width="123.692" height="4.609"/>
		</g>
		<g>
			<polyline style="fill:none;stroke:#B3CDD2;stroke-width:2;stroke-linejoin:round;stroke-miterlimit:10;" points="191.431,54.612 
				240.622,34.362 256.812,39.739 287.451,18.728 			"/>
			<polygon style="fill:#B3CDD2;" points="284.851,16.032 289.426,21.527 291.566,15.436 			"/>
		</g>
	</g>
	<g style="clip-path:url(#SVGID_00000178902398024427162250000016364135781452094387_);">
		<path style="fill:#F4ECCE;stroke:#C6CACF;stroke-miterlimit:10;" d="M226.234,376.264H53.192c-3.272,0-5.925-2.653-5.925-5.925
			v-88.577c0-3.272,2.653-5.925,5.925-5.925h173.043c3.273,0,5.925,2.653,5.925,5.925v88.577
			C232.16,373.611,229.507,376.264,226.234,376.264z"/>
		<g>
			<rect x="52.243" y="287.852" style="fill:#B3CDD2;" width="174.757" height="21.723"/>
			<g>
				<g>
					<rect x="57.061" y="291.704" style="fill:#FFFFFF;" width="24.177" height="14.019"/>
					<polygon style="opacity:0.3;fill:#B3CDD2;" points="57.061,291.704 69.15,298.713 81.238,291.704 					"/>
				</g>
				
					<line style="opacity:0.23;fill:none;stroke:#013E60;stroke-width:2;stroke-linecap:round;stroke-linejoin:round;stroke-miterlimit:10;" x1="96.369" y1="294.012" x2="218.263" y2="294.012"/>
				
					<line style="opacity:0.23;fill:none;stroke:#013E60;stroke-width:2;stroke-linecap:round;stroke-linejoin:round;stroke-miterlimit:10;" x1="96.136" y1="297.576" x2="218.03" y2="297.576"/>
				
					<line style="opacity:0.23;fill:none;stroke:#013E60;stroke-width:2;stroke-linecap:round;stroke-linejoin:round;stroke-miterlimit:10;" x1="96.369" y1="301.934" x2="151.156" y2="301.934"/>
				
					<line style="opacity:0.23;fill:none;stroke:#013E60;stroke-width:2;stroke-linecap:round;stroke-linejoin:round;stroke-miterlimit:10;" x1="158.117" y1="301.934" x2="198.457" y2="301.934"/>
			</g>
		</g>
		<g>
			<rect x="52.243" y="313.816" style="fill:#B3CDD2;" width="174.757" height="21.723"/>
			<g>
				<g>
					<rect x="57.061" y="317.668" style="fill:#FFFFFF;" width="24.177" height="14.019"/>
					<polygon style="opacity:0.3;fill:#B3CDD2;" points="57.061,317.668 69.15,324.677 81.238,317.668 					"/>
				</g>
				
					<line style="opacity:0.23;fill:none;stroke:#013E60;stroke-width:2;stroke-linecap:round;stroke-linejoin:round;stroke-miterlimit:10;" x1="96.369" y1="319.976" x2="218.263" y2="319.976"/>
				
					<line style="opacity:0.23;fill:none;stroke:#013E60;stroke-width:2;stroke-linecap:round;stroke-linejoin:round;stroke-miterlimit:10;" x1="96.136" y1="323.54" x2="185.641" y2="323.54"/>
				
					<line style="opacity:0.23;fill:none;stroke:#013E60;stroke-width:2;stroke-linecap:round;stroke-linejoin:round;stroke-miterlimit:10;" x1="96.369" y1="327.898" x2="151.156" y2="327.898"/>
			</g>
		</g>
		<g>
			<rect x="52.709" y="338.049" style="fill:#B3CDD2;" width="174.757" height="21.723"/>
			<g>
				<g>
					<rect x="57.527" y="341.901" style="fill:#FFFFFF;" width="24.177" height="14.019"/>
					<polygon style="opacity:0.3;fill:#B3CDD2;" points="57.527,341.901 69.616,348.91 81.704,341.901 					"/>
				</g>
				
					<line style="opacity:0.23;fill:none;stroke:#013E60;stroke-width:2;stroke-linecap:round;stroke-linejoin:round;stroke-miterlimit:10;" x1="96.835" y1="344.209" x2="218.729" y2="344.209"/>
				
					<line style="opacity:0.23;fill:none;stroke:#013E60;stroke-width:2;stroke-linecap:round;stroke-linejoin:round;stroke-miterlimit:10;" x1="96.602" y1="347.773" x2="177.033" y2="347.773"/>
				
					<line style="opacity:0.23;fill:none;stroke:#013E60;stroke-width:2;stroke-linecap:round;stroke-linejoin:round;stroke-miterlimit:10;" x1="96.835" y1="352.131" x2="151.622" y2="352.131"/>
			</g>
		</g>
	</g>
	<g style="clip-path:url(#SVGID_00000178902398024427162250000016364135781452094387_);">
		<g>
			<g>
				<g>
					<path style="fill:#B4CFCF;" d="M416.904,51.131l8.652-9.006l-6.974-12.572l-11.32,1.942c-0.003,0-0.006-0.001-0.008-0.003
						c-1.485-1.605-3.095-3.082-4.82-4.41c-0.003-0.002-0.004-0.005-0.003-0.009l1.441-10.48l-13.301-6.048l-8.51,8.415l0,0
						c-2.026-0.217-4.083-0.284-6.156-0.196c0,0,0,0,0,0c-0.001-0.001-7.477-10.046-7.477-10.046l-14.117,4.545l-0.433,12.86
						c0,0.003-0.002,0.007-0.005,0.009c-2.081,1.436-3.998,3.05-5.749,4.803c-0.002,0.002-0.005,0.003-0.009,0.003l-13.208-0.519
						l-5.453,13.487l7.874,6.485c0.003,0.003,0.004,0.007,0.004,0.01c-0.357,1.572-0.628,3.165-0.787,4.778
						c0,0.004-0.003,0.008-0.006,0.01l-11.345,8.11l4.401,13.668l11.365,0.155c0.004,0,0.008,0.002,0.01,0.006
						c0.785,1.455,1.648,2.852,2.6,4.174c0.003,0.004,0.003,0.008,0.002,0.012l-4.167,11.654l11.719,8.567l10.109-6.635h0
						c1.369,0.535,2.769,1,4.198,1.386l4.384,11.396l14.776-0.812l3.114-9.95c0.186-0.595,0.658-1.048,1.251-1.238
						c0.003-0.001,0.006-0.002,0.01-0.003c1.42-0.457,2.796-0.987,4.13-1.576l9.447,6.263l11.845-8.839l-3.883-11.869
						c0.885-1.297,1.695-2.639,2.421-4.022v0l11.88-1.128l3.516-14.053l-11.069-6.786l0,0
						C417.168,52.824,417.047,51.977,416.904,51.131z M354.125,65.098c-3.815-11.849,2.884-24.607,14.962-28.496
						c12.079-3.889,24.963,2.563,28.779,14.413c3.815,11.849-2.884,24.607-14.962,28.497
						C370.825,83.4,357.941,76.947,354.125,65.098z"/>
				</g>
			</g>
		</g>
		
			<ellipse transform="matrix(0.7071 -0.7071 0.7071 0.7071 69.2275 282.8292)" style="fill:#FFFFFF;" cx="376.019" cy="57.85" rx="14.665" ry="14.665"/>
		<g>
			
				<ellipse transform="matrix(0.9192 -0.3939 0.3939 0.9192 7.3562 152.9386)" style="fill:#B4CFCF;" cx="376.273" cy="58.548" rx="46.955" ry="46.955"/>
			<circle style="fill:#E0E3EB;" cx="376.292" cy="58.392" r="42.016"/>
			<circle style="fill:#B4CFCF;" cx="376.838" cy="58.392" r="37.31"/>
			<g>
				<path style="fill:#FFFFFF;" d="M380.408,59.561c0,1.989-1.612,3.602-3.602,3.602s-3.602-1.612-3.602-3.602
					c0-1.989,1.612-3.601,3.602-3.601S380.408,57.572,380.408,59.561z"/>
				
					<rect x="376.802" y="24.162" transform="matrix(0.9989 0.0465 -0.0465 0.9989 2.3173 -17.5391)" style="fill:#FFFFFF;" width="2.822" height="33.772"/>
				
					<rect x="362.421" y="32.371" transform="matrix(0.6291 -0.7773 0.7773 0.6291 96.4076 300.1871)" style="fill:#FFFFFF;" width="0.719" height="33.387"/>
				
					<rect x="366.584" y="52.539" transform="matrix(-0.4024 -0.9155 0.9155 -0.4024 457.6223 426.5118)" style="fill:#FFFFFF;" width="2.886" height="22.693"/>
			</g>
		</g>
	</g>
	<g style="clip-path:url(#SVGID_00000178902398024427162250000016364135781452094387_);">
		<rect x="204.822" y="118.946" style="fill:#F4ECCE;" width="146.471" height="146.471"/>
		<path style="fill:#C6CACF;" d="M341.423,261.623H213.72c-3.046,0-5.516-2.47-5.516-5.516V128.404c0-3.046,2.47-5.516,5.516-5.516
			h127.703c3.046,0,5.516,2.47,5.516,5.516v127.703C346.939,259.153,344.469,261.623,341.423,261.623z"/>
		<g>
			<rect x="213.648" y="151.518" style="fill:#FFFFFF;" width="15.624" height="15.624"/>
			<rect x="232.467" y="151.66" style="fill:#FFFFFF;" width="15.624" height="15.624"/>
			<rect x="250.937" y="151.732" style="fill:#FFFFFF;" width="15.624" height="15.624"/>
			<rect x="269.929" y="151.819" style="fill:#FFFFFF;" width="15.624" height="15.624"/>
			<rect x="288.399" y="151.819" style="fill:#FFFFFF;" width="15.624" height="15.624"/>
			<rect x="307.126" y="151.732" style="fill:#FFFFFF;" width="15.624" height="15.624"/>
			<rect x="325.871" y="151.819" style="fill:#FFFFFF;" width="15.624" height="15.624"/>
		</g>
		<g>
			<rect x="213.648" y="169.825" style="fill:#FFFFFF;" width="15.624" height="15.624"/>
			<rect x="232.467" y="169.967" style="fill:#FFFFFF;" width="15.624" height="15.624"/>
			<rect x="250.937" y="170.039" style="fill:#FFFFFF;" width="15.624" height="15.624"/>
			<rect x="269.929" y="170.126" style="fill:#FFFFFF;" width="15.624" height="15.624"/>
			<rect x="288.399" y="170.126" style="fill:#FFFFFF;" width="15.624" height="15.624"/>
			<rect x="307.126" y="170.039" style="fill:#FFFFFF;" width="15.624" height="15.624"/>
			<rect x="325.871" y="170.126" style="opacity:0.34;fill:#A8608D;" width="15.624" height="15.624"/>
		</g>
		<g>
			<rect x="213.648" y="188.347" style="fill:#FFFFFF;" width="15.624" height="15.624"/>
			<rect x="232.467" y="188.489" style="fill:#FFFFFF;" width="15.624" height="15.624"/>
			<rect x="250.937" y="188.561" style="fill:#FFFFFF;" width="15.624" height="15.624"/>
			<rect x="269.929" y="188.648" style="opacity:0.34;fill:#A8608D;" width="15.624" height="15.624"/>
			<rect x="288.399" y="188.648" style="fill:#FFFFFF;" width="15.624" height="15.624"/>
			<rect x="307.126" y="188.561" style="fill:#FFFFFF;" width="15.624" height="15.624"/>
			<rect x="325.871" y="188.648" style="fill:#FFFFFF;" width="15.624" height="15.624"/>
		</g>
		<g>
			<rect x="213.648" y="206.869" style="fill:#FFFFFF;" width="15.624" height="15.624"/>
			<rect x="232.467" y="207.011" style="fill:#FFFFFF;" width="15.624" height="15.624"/>
			<rect x="250.937" y="207.083" style="fill:#FFFFFF;" width="15.624" height="15.624"/>
			<rect x="269.929" y="207.17" style="fill:#FFFFFF;" width="15.624" height="15.624"/>
			<rect x="288.399" y="207.17" style="fill:#FFFFFF;" width="15.624" height="15.624"/>
			<rect x="307.126" y="207.083" style="opacity:0.34;fill:#A8608D;" width="15.624" height="15.624"/>
			<rect x="325.871" y="207.17" style="fill:#FFFFFF;" width="15.624" height="15.624"/>
		</g>
		<path style="fill:#FFFFFF;" d="M339.645,144.886H215.498c-1.621,0-2.934-1.314-2.934-2.935v-8.745
			c0-1.621,1.314-2.935,2.934-2.935h124.147c1.621,0,2.934,1.314,2.934,2.935v8.745C342.58,143.572,341.266,144.886,339.645,144.886
			z"/>
		<path style="fill:#B3CDD2;" d="M224.97,137.579c0,2.178-1.766,3.943-3.943,3.943s-3.943-1.766-3.943-3.943
			c0-2.178,1.765-3.943,3.943-3.943S224.97,135.401,224.97,137.579z"/>
		<path style="fill:#FFFFFF;" d="M269.929,245.97c0,2.178-1.766,3.943-3.943,3.943s-3.943-1.766-3.943-3.943
			s1.766-3.943,3.943-3.943S269.929,243.792,269.929,245.97z"/>
		<path style="fill:#FFFFFF;" d="M281.515,245.97c0,2.178-1.766,3.943-3.943,3.943c-2.178,0-3.944-1.766-3.944-3.943
			s1.766-3.943,3.944-3.943C279.749,242.026,281.515,243.792,281.515,245.97z"/>
		<circle style="fill:#FFFFFF;" cx="288.399" cy="245.97" r="3.943"/>
		<polyline style="opacity:0.34;fill:none;stroke:#A8608D;stroke-miterlimit:10;" points="215.9,158.29 221.46,163.946 
			228.258,154.331 		"/>
		<polyline style="opacity:0.34;fill:none;stroke:#A8608D;stroke-miterlimit:10;" points="253.259,177.205 258.82,182.861 
			265.618,173.246 		"/>
		<polyline style="opacity:0.34;fill:none;stroke:#A8608D;stroke-miterlimit:10;" points="215.92,212.702 221.481,218.359 
			228.279,208.743 		"/>
		<polyline style="opacity:0.34;fill:none;stroke:#A8608D;stroke-miterlimit:10;" points="290.599,156.867 296.159,162.523 
			302.957,152.907 		"/>
	</g>
	<g style="clip-path:url(#SVGID_00000178902398024427162250000016364135781452094387_);">
		<polygon style="opacity:0.22;fill:#892929;" points="445.626,487.247 507.476,486.443 507.476,453.26 501.613,367.426 
			445.626,435.783 410.352,453.585 301.196,482.799 322.289,484.185 334.023,481.278 475.685,463.982 402.865,481.232 		"/>
		<g>
			<path style="fill:#EB9091;" d="M418.942,456.398c-0.3,3.238,0.069,6.53,1.078,9.636c0.254,0.78,0.54,1.655,0.139,2.377
				c-0.465,0.836-1.611,1.046-2.605,1.115c-2.37,0.167-4.76,0.082-7.11-0.252c-0.806-0.115-1.667-0.288-2.221-0.854
				c-0.594-0.606-0.685-1.501-0.736-2.326c-0.158-2.555-0.224-5.115-0.198-7.674c0.012-1.132,0.063-2.333,0.723-3.276
				c0.537-0.767,1.42-1.265,2.339-1.56c3.307-1.06,7.32,0.563,8.803,3.56"/>
			<path style="fill:#EB9091;" d="M319.03,467.798c-1.789-0.828,0.906-12.193,1.147-13.704c0.098-0.612,0.258-1.312,0.835-1.601
				c0.428-0.214,0.947-0.125,1.42-0.031c3.885,0.774,7.77,1.548,11.655,2.322c-1.934,4.244-2.991,9.095-3.878,13.614
				c-0.044,0.226-0.099,0.469-0.281,0.621c-0.142,0.118-0.335,0.157-0.52,0.19C325.912,469.824,322.207,469.321,319.03,467.798z"/>
			<path style="fill:#0E1F32;" d="M329.063,484.385c-3.972,0.918-8.11,1.713-11.982,1.93c-5.894,0.312-11.823,0.05-17.659-0.79
				c-0.71-0.102-1.447-0.224-2.029-0.623c-1.373-0.943-1.261-2.882-1.006-4.472c0.091-0.569,0.225-1.205,0.731-1.524
				c0.401-0.254,0.921-0.23,1.403-0.214c9.846,0.324,11.468-6.382,15.523-13.475c0.244-0.427,0.534-0.865,0.994-1.08
				c0.472-0.22,1.029-0.162,1.551-0.096c1.821,0.23,4.376,0.185,6.055,0.914c1.526,0.662,2.515,2.431,4.09,2.862
				c1.4,0.383,3.044-0.827,4.273-0.08c2.137,1.307,0.415,4.541,0.794,6.343c0.492,2.344,2.129,4.361,3.115,6.655
				c0.272,0.633,0.525,1.417,0.07,1.947c-0.264,0.307-0.693,0.427-1.096,0.528C332.329,483.602,330.71,484.004,329.063,484.385z"/>
			<path style="opacity:0.27;fill:#2F5682;" d="M314.898,475.558c-0.558,0.805-1.209,1.548-2.01,2.135
				c-1.754,1.287-4.135,2.793-6.371,3.042c-1.42,0.158-2.856-0.006-4.276-0.17c-1.008-0.116-2.016-0.233-3.024-0.349
				c-0.815-0.105-1.516,0.174-2.315,0.329c-0.137,0.027-0.288,0.051-0.409-0.016c-0.158-0.088-0.19-0.293-0.169-0.467
				c0.09-0.783,0.863-1.367,1.671-1.55c0.808-0.183,1.653-0.056,2.477,0.044c6.738,0.819,11.265-7.572,13.239-12.419
				c0.75-1.84,1.809-1.187,3.539-1.22c2.212-0.043,1.028,2.402,0.69,3.742c-0.496,1.967-1.259,3.873-2.268,5.655
				C315.433,474.737,315.177,475.155,314.898,475.558z"/>
			<path style="fill:#0E1F32;" d="M407.849,467.211c-0.278-0.022-0.555-0.006-0.828,0.068c-1.331,0.364-1.077,4.656-1.47,5.957
				c-0.848,2.813-2.113,5.572-1.871,8.563c0.075,0.922,0.289,1.949,1.098,2.464c0.588,0.374,1.345,0.379,2.053,0.382
				c4.699,0.018,42.577,6.913,43.097,0.476c0.112-1.391-1.59-3.439-2.735-4.24c-2.318-1.621-4.425-1.252-6.946-1.805
				c-6.915-1.518-12.686-4.636-16-10.6c-0.259-0.466-0.529-0.945-0.959-1.278c-0.369-0.286-0.828-0.442-1.281-0.579
				c-1.544-0.466-3.143-0.768-4.757-0.897c-0.769-0.062-1.573-0.079-2.277,0.22c-0.704,0.298-1.276,0.997-1.162,1.72
				c0.032,0.202,0.107,0.43-0.023,0.592c-0.127,0.159-0.377,0.156-0.586,0.135c-1.244-0.129-2.474-0.384-3.661-0.759
				C408.991,467.457,408.418,467.256,407.849,467.211z"/>
			<path style="opacity:0.27;fill:#2F5682;" d="M407.836,467.152c-0.584,0.106-1.131,0.42-1.53,0.973
				c-0.934,1.294-0.308,3.631-0.754,5.112c-0.848,2.813-2.113,5.572-1.871,8.563c0.075,0.922,0.289,1.949,1.098,2.464
				c0.588,0.374,1.345,0.379,2.053,0.382c0.054,0,0.108,0.001,0.162,0.003c8.61,0.395,17.168,2.249,25.774,2.891
				c4.354,0.325,9.161,0.814,13.477-0.085c1.548-0.323,5.735-1.735,2.789-3.542c-0.686-0.421-1.524-0.54-2.332-0.649
				c-2.573-0.348-4.839-0.206-7.408-0.266c-6.699-0.157-13.441-0.956-19.741-3.12c-3.46-1.189-7.138-3.216-7.916-6.627
				c-0.314-1.377-0.106-2.846-0.587-4.18C410.544,467.665,409.101,466.922,407.836,467.152z"/>
			<path style="fill:#013E5E;" d="M370.655,275.788c-3.497-0.493-7.752-1.033-9.864,0.663c-1.406,1.129-1.942,2.995-2.401,4.738
				c-7.468,28.376-14.936,56.752-22.404,85.128c-1.303,4.952-2.606,9.903-3.91,14.855c-1.628,6.185-3.256,12.37-4.852,18.564
				c-3.408,13.221-6.673,26.479-9.795,39.771c-0.835,3.557-5.718,15.753-3.464,18.74c2.823,3.74,14.316,1.369,18.185,0.862
				c1.469-0.192,3.005-0.455,4.157-1.34c1.646-1.263,2.082-3.432,2.442-5.411c4.027-22.143,13.014-41.827,21.225-62.658
				c10.41-26.408,20.789-52.828,31.415-79.158c2.4,0.42,4.801,0.84,7.201,1.261c0.275,5.726,0.549,11.452,0.824,17.179
				c0.065,1.354,0.13,2.709,0.195,4.063c0.887,18.491,2.528,36.784,2.503,55.284c-0.033,24.349,0.068,48.392-3.441,72.542
				c8.624-1.124,17.137,0.408,25.826-0.791c7.213-1.422,3.953-37.512,4.174-44.735c0.684-22.332,4.681-44.026,5.308-66.534
				c0.67-24.009-0.024-48.055-2.083-71.985c-0.06-0.697-0.137-1.437-0.566-1.99c-0.811-1.045-2.396-0.922-3.701-0.709
				c-11.904,1.94-23.97,2.882-36.031,2.823c-5.856-0.029-11.678-0.413-17.519-0.748C373.141,276.147,371.95,275.971,370.655,275.788
				z"/>
			<path style="opacity:0.31;fill:#2F5682;" d="M381.06,285.138c-1.429-0.085-2.794,0.014-4.059,0.402
				c-6.415,1.97-9.76,11.353-11.77,16.809c-9.029,24.5-11.18,50.575-17.786,75.647c-6.594,25.023-21.186,46.072-23.985,72.458
				c-0.876,8.256-0.104,9.806,8.692,8.655c1.469-0.192,3.005-0.455,4.157-1.34c1.646-1.263,2.082-3.432,2.442-5.411
				c4.027-22.143,13.014-41.827,21.225-62.658c10.497-26.623,21.195-53.181,31.531-79.858c-0.482,1.243,11.243,2.307,12.134,2.244
				c-1.029,0.073,0.183,23.61,0.341,26.221c0.57,9.372,1.556,18.736,3.042,28.018c0.976,6.225,2.153,12.444,2.356,18.734
				c0.197,6.101-0.523,12.189-1.078,18.27c-1.178,12.913-1.608,25.888-1.29,38.845c0.082,3.345-1.349,15.414,1.204,17.755
				c2.39,2.191,13.207,0.756,16.281,0.15c7.213-1.422,3.953-37.512,4.174-44.735c0.671-21.916,3.425-43.278,3.465-65.201
				c0.011-5.808,0.603-66.478-1.816-66.767c-5.454-0.651-8.832,1.448-13.658,2.855c-5.641,1.644-12.324,1.738-18.162,2.105
				C393.273,288.664,386.679,285.474,381.06,285.138z"/>
		</g>
		<path style="fill:#5A9598;" d="M377.619,239.418c0.565-1.858,1.135-3.745,1.136-5.678c0.002-2.362-0.845-4.644-1.721-6.855
			c-3.312-8.361-7.273-16.644-8.916-25.495c-1.533-8.256-3.071-15.15,6.895-17.681c9.994-2.538,20.58-2.906,30.757-1.168
			c6.743,1.151,18.891,2.95,21.778,9.941c0.717,1.736,0.768,3.648,0.739,5.512c-0.168,10.561-2.943,21.267-4.57,31.683
			c-1.184,7.577,2.482,13.756,4.32,21.134c1.928,7.741,3.114,15.648,3.531,23.593c0.046,0.872,0.071,1.794-0.373,2.558
			c-0.494,0.85-1.464,1.332-2.389,1.747c-19.217,8.637-42.386,8.96-61.863,0.862c-0.791-0.329-1.622-0.708-2.078-1.403
			c-1.195-1.822,5.03-13.368,5.763-15.781C372.959,254.73,375.29,247.074,377.619,239.418z"/>
		<g>
			<path style="fill:#EB9091;" d="M392.484,171.47c0.855,3.071,0.213,7.04-0.272,10.129c-0.174,1.107-0.393,2.235-0.19,3.338
				c0.343,1.866,2.214,2.936,3.988,3.471c2.24,0.675,4.728,0.579,6.902-0.267c1.595-0.62,3.108-1.763,3.495-3.356
				c0.145-0.596,0.123-1.216,0.1-1.828c-0.16-4.298-1.055-9.233-0.386-13.469c-2.118,0.62-3.995,1.839-6.182,2.322
				c-0.896,0.198-7.12,0.792-7.48-0.424C392.468,171.413,392.476,171.442,392.484,171.47z"/>
			<path style="opacity:0.29;fill:#EB9091;" d="M395.356,173.454c-1.176,1.718-0.841,6.418-1.117,8.498
				c-0.165,1.243-0.329,2.515-0.05,3.739c0.87,3.822,5.658,3.642,8.724,2.45c1.595-0.62,3.108-1.763,3.495-3.356
				c0.145-0.596,0.123-1.216,0.1-1.828c-0.16-4.298-1.055-9.233-0.386-13.469c-2.118,0.62-3.994,1.839-6.181,2.322
				C397.521,172.343,396.614,171.624,395.356,173.454z"/>
			<path style="fill:#EB9091;" d="M416.681,159.104c-2.819,5.613-5.065,10.453-11.796,13.809c-4.409,2.198-9.587,2.976-14.361,1.759
				c-2.775-0.707-5.471-2.153-7.091-4.515c-2.215-3.229-2.05-7.46-1.947-11.375c0.298-11.247-5.216-28.143,8.82-33.327
				c9.631-3.557,22.383-1.234,28.25,7.217c2.471,3.559,2.975,7.226,3.343,11.339c1.12-0.407,2.079-1.509,3.471-0.934
				c1.022,0.423,1.489,1.551,1.667,2.596c0.522,3.064-0.656,6.343-3.043,8.467c-0.693,0.617-1.503,1.15-2.429,1.352
				c-0.926,0.202-1.981,0.024-2.651-0.615C418.088,156.324,417.368,157.737,416.681,159.104z"/>
			<path style="opacity:0.29;fill:#EB9091;" d="M416.687,159.248c-0.473,0.917-0.855,1.659-0.933,1.806
				c-0.407,0.763-0.871,1.493-1.335,2.223c-1.884,2.965-3.455,5.454-6.366,7.523c-2.205,1.567-5.765,3.748-8.577,3.748
				c-1.917,0.396-3.962,0.537-5.786-0.173c3.241-1.345,6.69-2.206,9.604-4.178c2.671-1.808,5.026-4.186,6.479-7.091
				c3.01-6.015,3.491-14.001,2.451-20.5c-0.364-2.275-1.833-17.193-5.867-17.027c4.931-0.202,9.565,3.438,12.2,7.233
				c2.471,3.559,2.975,7.226,3.343,11.339c1.12-0.407,2.079-1.509,3.471-0.934c1.022,0.423,1.489,1.551,1.667,2.596
				c0.522,3.064-0.656,6.343-3.043,8.467c-0.693,0.617-1.503,1.15-2.429,1.352c-0.926,0.202-1.981,0.024-2.651-0.615
				C418.887,154.991,417.613,157.454,416.687,159.248z"/>
			<g>
				<path style="fill:#EB9091;" d="M424.886,144.579c-1.028,1.845-2.34,3.464-3.742,5.022l-0.505-0.789
					c0.939-0.268,1.924,0.013,2.622,0.553c0.7,0.532,1.185,1.423,1.036,2.252c-0.423-1.429-2.055-2.256-3.381-1.869l-1.556,0.484
					C421.017,148.193,422.766,146.16,424.886,144.579L424.886,144.579z"/>
			</g>
			<path d="M400.671,148.873c0,1.066,0.641,1.931,1.433,1.931s1.433-0.865,1.433-1.931c0-1.067-0.641-1.931-1.433-1.931
				S400.671,147.806,400.671,148.873z"/>
			<path d="M385.447,148.098c0,0.964,0.512,1.745,1.143,1.745c0.631,0,1.143-0.781,1.143-1.745s-0.512-1.745-1.143-1.745
				C385.959,146.353,385.447,147.134,385.447,148.098z"/>
			<g>
				<path style="fill:#EB9091;" d="M392.505,143.032c1.217,3.382,2.327,7.06-0.554,10c-1.007,1.229-2.163,2.549-2.125,4.169
					c0.02,1.467,1.812,2.754,3.47,2.208c-0.737,0.48-1.749,0.45-2.586,0.079c-1.944-0.799-2.04-3.333-1.068-4.926
					c0.808-1.533,2.189-2.654,2.902-4.164C393.552,148.076,392.661,145.51,392.505,143.032L392.505,143.032z"/>
			</g>
			<g>
				<path style="fill:#FFFFFF;" d="M392.292,163.736c-2.15,0.095-3.96-0.01-4.302-0.476c1.734,2.362,3.766,3.732,6.731,3.086
					c2.463-0.537,4.429-1.815,5.845-3.908C399.846,162.949,395.653,163.587,392.292,163.736z"/>
			</g>
			<g>
				<g>
					<g>
						<path style="fill:#FECB61;" d="M407.558,144.579c-1.142-2.055-2.767-3.597-5.159-3.525c-0.726,0.021-1.474,0.152-2.307,0.628
							c0.396-2.127,3.194-2.954,5.071-2.119C407.186,140.402,408.275,142.766,407.558,144.579L407.558,144.579z"/>
					</g>
					<g>
						<path style="fill:#FECB61;" d="M389.501,142.076c-2.166-1.435-4.044,0.116-5.745,1.54c-0.688-2.504,2.385-4.931,4.637-3.563
							C389.113,140.44,389.718,141.291,389.501,142.076L389.501,142.076z"/>
					</g>
				</g>
			</g>
			<path style="fill:#FECB61;" d="M418.498,150.72c-0.264,0.624-2.027,4.593-1.875,4.814c-0.953-1.389-1.369-3.137-1.144-4.806
				c-0.103,0.314-0.569,0.361-0.832,0.16c-0.263-0.201-0.368-0.541-0.454-0.861c-0.433-1.606-0.75-3.283-0.497-4.927
				c0.139-0.9,1.344-2.672,0.902-3.437c-0.386-0.666-1.374-0.547-2.101-0.294c-0.727,0.253-1.64,0.515-2.18-0.034
				c-0.765-0.779,0.129-2.1,0.563-2.783c-2.558,0.502-5.34-0.042-7.849-0.717c-2.267-0.609-3.467-1.861-5.148-3.196
				c-0.23,0.651-0.949,1.976-1.917,1.123c-0.432-0.381-0.576-0.985-0.697-1.548c-0.198,1.165-1.596,1.878-2.73,1.548
				c-1.134-0.33-1.906-1.48-2.024-2.656c-0.118-1.175,0.324-2.35,0.979-3.333c-2.943,1.273-5.848,2.657-7.847,5.272
				c-2.254,2.949-3.059,6.853-2.143,10.39c0.063,0.243-1.558-0.503-1.664-0.585c-0.633-0.484-0.834-1.283-1.152-1.962
				c-0.569-1.215-1.081-2.458-0.591-3.804c-2.592-0.081-5.024-1.986-5.724-4.483c-0.7-2.497,0.389-5.388,2.561-6.804
				c-2.767-1.406-4.22-4.844-3.593-7.884c0.626-3.039,3.119-5.534,6.075-6.479c2.956-0.945,6.275-0.434,8.994,1.062
				c-1.322-2.004,0.481-5.185,2.88-5.08c2.76,0.121,4.267,3.437,6.862,4.385c-0.47-1.645-0.302-3.464,0.463-4.994
				c1.302,2.111,2.678,4.297,4.784,5.608c3.272,2.035,7.526,1.506,11.129,2.875c3.561,1.354,6.21,4.494,7.8,7.957
				c1.559,3.393,2.412,7.366,3.146,10.98c0.73,3.597-1.3,5.945-2.686,9.139C420.015,147.147,419.255,148.933,418.498,150.72z"/>
			<path style="opacity:0.32;fill:#FECB61;" d="M418.498,150.72c-0.264,0.624-2.027,4.593-1.875,4.814
				c-0.953-1.389-1.369-3.137-1.144-4.806c-0.103,0.314-0.569,0.361-0.832,0.16c-0.263-0.201-0.368-0.541-0.454-0.861
				c-0.433-1.606-0.75-3.283-0.497-4.927c0.139-0.9,1.344-2.672,0.902-3.437c-0.549-0.947-2.122-0.169-2.94-0.943
				c-0.269-0.255-1.132-2.351-0.24-2.383c-2.538,0.091-5.173,0.164-7.506-0.838c-2.334-1.002-4.271-3.41-3.87-5.918
				c-0.591,0.707-1.305,1.476-2.226,1.48c-0.922,0.005-1.654-1.379-0.862-1.851c-1.005,0.528-2.314,0.866-3.215,0.175
				c-0.812-0.623-0.912-1.865-0.506-2.805c0.406-0.94,1.199-1.648,1.968-2.324c-4.845-0.113-9.081,2.968-13.377,5.211
				c-0.494,0.258-1.039,0.514-1.587,0.412c-1.065-0.198-1.435-1.543-1.396-2.625c0.175-4.952,4.776-9.321,9.73-9.241
				c-1.092-1.611-0.27-4.018,1.391-5.032c1.661-1.014,3.836-0.843,5.611-0.044c1.775,0.799,3.237,2.143,4.666,3.465
				c-0.805-1.899-1.183-3.978-1.099-6.039c3.552,4.392,8.567,3.094,13.389,4.926c3.561,1.354,6.21,4.494,7.8,7.957
				c1.559,3.393,2.412,7.366,3.146,10.98c0.73,3.597-1.3,5.945-2.686,9.139C420.015,147.147,419.255,148.933,418.498,150.72z"/>
			<path style="opacity:0.37;fill:#EB9091;" d="M408.036,153.679c0.816,0.258,1.669,0.743,1.854,1.54
				c0.158,0.682-0.228,1.37-0.691,1.913c-1.184,1.386-2.981,2.287-4.856,2.433c-1.875,0.146-3.802-0.464-5.209-1.648
				c-0.3-0.253-0.585-0.542-0.716-0.902c-0.297-0.82,0.297-1.695,0.996-2.253C401.49,153.102,405.537,152.889,408.036,153.679z"/>
			<path style="opacity:0.37;fill:#EB9091;" d="M385.637,152.39c0.777,0.456,1.439,1.141,1.684,1.976
				c0.244,0.835,0.003,1.822-0.715,2.358c-0.785,0.587-1.967,0.514-2.811,0.006c-0.844-0.508-1.388-1.37-1.721-2.263
				c-0.231-0.619-0.374-1.301-0.175-1.93C382.457,150.769,384.511,151.729,385.637,152.39z"/>
		</g>
		<g>
			<path style="opacity:0.47;fill:#3F6C9E;" d="M361.835,285.639c-1.868-2.464-2.852-5.577-2.969-9.185
				c-0.565-17.471,2.574-34.835,7.461-51.553c2.467-8.442,5.488-16.668,8.528-24.914c1.435-3.893,1.394-5.026,0.698-8.807
				c-0.531-2.886-1.959-6.662,0.654-9.039c1.65-1.501,15.11-0.991,15.308-1.668c-2.38,8.114-2.762,16.017-3.274,24.345
				c-0.43,6.988-1.952,13.348-0.314,20.499c2.56,11.181,3.492,22.682,3.306,34.11c-0.179,10.962-0.77,22.768-4.143,33.308
				c-0.167,0.522-0.375,1.094-0.879,1.357c-0.364,0.19-0.805,0.173-1.22,0.144c-5.399-0.375-10.632-1.894-15.751-3.564
				C366.015,289.62,363.551,287.903,361.835,285.639z"/>
			<path style="fill:#338287;" d="M429.868,296.305c2.926-0.073,5.853-0.147,8.779-0.221c1.506-0.038,3.176-0.143,4.231-1.218
				c1.041-1.06,1.129-2.705,1.122-4.19c-0.085-18.198-5.011-35.852-8.338-53.616c-1.688-9.012-2.979-18.101-3.075-27.284
				c-0.048-4.616-3.536-17.388,3.879-18.192c-2.945,0.319-7.919-4.534-10.408-5.812c-4.951-2.544-10.936-5.101-16.671-4.896
				c-2.89,4.934-4.641,10.465-5.094,16.093c-0.202,2.503-0.15,5.018-0.061,7.528c1.096,30.918,10.501,61.348,4.299,92.345
				C415.643,296.663,422.755,296.484,429.868,296.305z"/>
			<path style="opacity:0.47;fill:#3F6C9E;" d="M429.203,295.73c3.861-0.238,11.92,0.672,13.382-3.871
				c0.484-1.505,0.426-3.124,0.33-4.701c-1.055-17.399-5.694-34.303-8.591-51.455c-1.509-8.933-2.364-17.897-1.906-26.959
				c0.259-5.132,1.212-13.593-3.536-16.671c-5.908-3.83-12.863-6.209-19.995-6.8c-3.307-0.274,0.899,6.468,1.292,6.963
				c2.893,3.645,7.733,7.629,9.171,12.078c-4.346,2.345-8.874,4.115-13.432,5.966c4.081,2.133,8.334,3.597,12.281,6.359
				c0.402,0.281,0.822,0.595,0.987,1.057c0.126,0.353,0.082,0.741,0.036,1.112c-2.447,19.798-8.484,39.039-8.726,58.992
				c-0.048,3.969,2.016,14.198-0.932,17.146c0.775,0.812,2.025,0.887,3.147,0.909C418.203,295.962,423.727,296.067,429.203,295.73z"
				/>
		</g>
		<g>
			<path style="fill:#EB9091;" d="M293.759,197.846c-1.699-3.266-2.915-6.784-5.727-9.225c-2.401-2.084-5.418-3.395-8.419-4.574
				c-5.114-2.009-10.414-3.752-15.911-4.228c-1.116-0.097-2.505,0.005-2.954,0.974c-0.379,0.817,0.217,1.805,1.04,2.252
				c0.823,0.447,1.803,0.503,2.742,0.604c4.298,0.462,8.462,2.092,11.869,4.648c-2.506,0.662-4.291,2.852-5.074,5.206
				c-0.783,2.354-0.73,4.882-0.669,7.357c0.041,1.67,0.416,3.771,2.117,4.211c0.882,0.228,1.845-0.114,2.719,0.143
				c1.574,0.463,1.938,2.476,3.233,3.449c1.249,0.939,3.017,0.702,4.596,0.853c6.406,0.609,11.19,12.103,17.544,9.237
				c1.768-0.798,3.018-2.329,4.2-3.807c0.755-0.944,1.553-2.043,1.328-3.217c-0.173-0.903-0.914-1.601-1.616-2.235
				c-2.474-2.234-4.948-4.469-7.423-6.703C295.777,201.365,294.695,199.644,293.759,197.846z"/>
			<g>
				<path style="fill:#EB9091;" d="M289.221,191.545c-1.192-0.408-2.066-1.391-3.017-2.126c-2.806-1.992-3.915-0.81-5.344,1.873
					c-1.012,1.609-2.361,2.997-3.895,4.119c-1.495,1.026-2.412,2.476,0.075,2.784c2.327,0.216,4.392-1.509,6.041-3.036
					c0,0,0.648,0.621,0.648,0.621c-1.751,1.96-3.469,4.313-3.23,7.05c0.114,2.712,2.969,4.988,5.646,4.01
					c-2.714,1.338-6.046-1.03-6.257-3.941c-0.423-2.937,1.312-5.636,3.167-7.714l0.648,0.621c-1.831,1.724-4.027,3.656-6.786,3.366
					c-3.279-0.484-2.893-2.975-0.477-4.49c2.015-1.398,3.535-3.271,4.827-5.35c1.259-2.006,3.624-1.66,5.145-0.163
					C287.341,190.004,288.091,191.005,289.221,191.545L289.221,191.545z"/>
			</g>
			<path style="fill:#338287;" d="M388.24,204.818c0.513-8.327,0.894-16.23,3.274-24.345c-5.465-0.165-10.957,0.485-16.212,1.919
				c-0.022,0.006-0.039,0.016-0.061,0.022c-0.569,0.003-1.16,0.104-1.673,0.265c-7.399,2.326-11.981,9.131-15.974,15.472
				c-5.539,8.795-10.855,20.876-20.913,25.954c-5.91,3.515-10.466-1.533-14.906-5.225c-6.136-5.103-12.272-10.205-18.408-15.308
				c-5.562,4.148-10.583,8.946-14.916,14.252c-0.247,0.302-0.501,0.631-0.522,1.014c-0.03,0.553,0.426,1.015,0.851,1.399
				c5.311,4.803,10.627,9.66,16.206,14.201c6.465,5.262,13.284,10.099,20.858,13.934c4.012,2.032,8.335,3.857,12.863,3.818
				c11.287-0.018,16.658-10.26,23.237-17.768c-0.061,0.232-0.111,0.466-0.172,0.698c-2.331,8.805-5.18,17.526-6.255,26.57
				c-0.635,5.338-1.151,14.706,1.235,21.188c0.708,1.924,1.672,3.594,2.964,4.828c5.742,5.488,19.706,6.91,27.205,7.312
				c5.09-22.07,6.041-47.728,1.007-69.704C386.288,218.166,387.81,211.806,388.24,204.818z"/>
			<path style="opacity:0.47;fill:#3F6C9E;" d="M304.986,234.44c6.465,5.262,13.284,10.099,20.858,13.934
				c4.012,2.032,8.335,3.857,12.863,3.818c12.904-0.111,21.478-15.929,27.857-25.257c-5.877,17.19-9.452,35.559-6.936,53.551
				c0.261,1.868,0.631,3.824,1.846,5.265c3.002,3.561,24.717,0.084,23.902-6.23c-2.485-19.255-5.755-38.408-9.798-57.397
				c-0.156-0.731-0.31-1.509-0.051-2.211c0.208-0.563,0.655-0.999,1.088-1.415c2.691-2.579,5.382-5.159,8.074-7.738
				c-1.851-3.09-4.513-5.688-7.647-7.464c-0.508-0.288-1.076-0.612-1.236-1.174c-0.172-0.607,0.207-1.22,0.569-1.737
				c3.832-5.481,7.663-10.962,11.494-16.443c-2.847,0.375-5.694,0.75-8.54,1.126c-0.8,0.105-1.647,0.231-2.264,0.749
				c-0.566,0.475-0.845,1.202-1.091,1.899c-0.96,2.718-1.775,5.488-2.441,8.293c-0.283-3.048-0.074-6.142,0.617-9.125
				c-3.224,1.377-5.606,4.163-7.708,6.969c-8.868,11.839-14.844,25.55-22.454,38.233c-0.414,0.689-0.876,1.415-1.611,1.74
				c-0.933,0.412-2.008,0.06-2.965-0.294c-6.603-2.441-14.054-3.992-19.857-8.023c-5.433-3.774-9.765-8.831-14.778-13.1
				c-7.054-6.007-12.083,0.218-16.326,5.413c-0.247,0.302-0.501,0.631-0.522,1.014c-0.03,0.553,0.426,1.015,0.851,1.399
				C294.09,225.042,299.406,229.899,304.986,234.44z"/>
		</g>
		<g>
			<path style="fill:#338287;" d="M436.138,191.554c2.569,2.087,4.884,4.396,6.962,7.031c4.613,5.85,9.163,11.745,13.65,17.682
				c3.685,4.876,15.662,15.671,9.89,22.235c-1.734,1.971-4.514,2.9-7.199,2.891c-7.778-0.025-16.737-10.478-21.775-15.57
				c-5.327-5.384-13.925-12.402-14.491-20.148c-0.371-5.075,0.219-10.211,1.732-15.092c0.492-1.588,1.383-3.401,3.108-3.649
				c1.152-0.165,2.251,0.455,3.215,1.076C432.96,189.127,434.595,190.3,436.138,191.554z"/>
			<path style="opacity:0.33;fill:#305685;" d="M432.45,195.343c4.851,4.5,8.994,9.628,13.563,14.424
				c6.137,6.442,11.627,13.539,15.161,21.596c3.293,7.508,1.982,13.087-7.221,8.553c-6.551-3.228-11.329-9.082-16.288-14.093
				c-5.305-5.362-13.228-10.702-13.428-18.833c-0.05-2.043,0.299-4.072,0.648-6.086c0.433-2.504,0.871-5.023,1.726-7.416
				c0.198-0.555,0.448-1.139,0.945-1.456C428.883,191.182,431.617,194.57,432.45,195.343z"/>
			<g>
				<path style="fill:#338287;" d="M419.83,243.397c-1.838,0.912-3.595,1.961-5.217,3.241c-1.604,1.266-2.738,3.401-2.204,5.3
					c0.257,0.912,0.858,1.664,1.445,2.391c1.168,1.444,2.337,2.889,3.505,4.333c1.921,2.376,4.125,4.914,7.201,5.29
					c2.052,0.251,4.132-0.525,6.096-1.328c6.384-2.496,11.468-5.917,18.125-7.996c3.94-1.231,7.946-2.492,11.419-4.811
					c4.25-2.837,7.581-7.433,8.061-12.448c0.479-5.015-2.356-10.229-7.056-11.635c-3.54-1.059-7.512,0.065-10.867,1.929
					c-3.355,1.864-6.292,4.43-9.485,6.579C434.445,238.553,426.583,240.048,419.83,243.397z"/>
				<g>
					<g>
						<g>
							<polygon style="fill:#5B6E84;" points="435.702,278.047 410.999,321.241 351.539,287.203 376.445,244.125 							"/>
							
								<rect x="369.074" y="247.17" transform="matrix(0.4968 -0.8679 0.8679 0.4968 -45.7551 483.8798)" style="fill:#6F85A5;" width="50.655" height="68.455"/>
						</g>
						<g>
							
								<rect x="372.199" y="250.137" transform="matrix(0.4968 -0.8679 0.8679 0.4968 -45.6593 483.9389)" style="fill:#5B6E84;" width="44.603" height="62.414"/>
							<g>
								
									<linearGradient id="SVGID_00000042732892579431004680000008321343944408927905_" gradientUnits="userSpaceOnUse" x1="229.8473" y1="300.2949" x2="425.1398" y2="300.2949" gradientTransform="matrix(0.7001 -0.714 0.714 0.7001 -41.6989 294.5906)">
									<stop  offset="0" style="stop-color:#B4B4B3"/>
									<stop  offset="0.0414" style="stop-color:#BFBFBE"/>
									<stop  offset="0.1481" style="stop-color:#D7D7D6"/>
									<stop  offset="0.2702" style="stop-color:#E9E9E8"/>
									<stop  offset="0.4146" style="stop-color:#F5F5F5"/>
									<stop  offset="0.603" style="stop-color:#FDFDFD"/>
									<stop  offset="1" style="stop-color:#FFFFFF"/>
								</linearGradient>
								<polygon style="fill:url(#SVGID_00000042732892579431004680000008321343944408927905_);" points="428.821,280.374 
									408.96,315.068 354.793,284.06 376.952,245.351 427.775,274.445 								"/>
								<polygon style="fill:#FFEDB8;" points="428.821,280.374 425.08,276.706 427.775,274.445 								"/>
							</g>
							<g>
								<g>
									<g>
										<path style="fill:#5B6E84;" d="M358.913,270.214c0.146-1.178,0.082-2.433-0.167-3.591
											c-0.189-0.876-0.489-1.725-1.084-2.388c-1.119-1.247-1.65-2.381-1.043-4.095c0.346-0.977,1.092-1.824,2.054-2.211
											c1.514-0.609,3.18-0.066,4.73-0.452c1.826-0.454,3.762-1.679,4.705-3.327L358.913,270.214z"/>
										<path style="fill:#A3A3A3;" d="M359.21,269.964c0.146-1.178,0.082-2.433-0.167-3.59c-0.189-0.876-0.489-1.725-1.084-2.388
											c-1.119-1.247-1.65-2.381-1.043-4.095c0.346-0.977,1.092-1.824,2.054-2.211c1.514-0.609,3.18-0.066,4.73-0.452
											c1.826-0.454,3.762-1.679,4.705-3.327L359.21,269.964z"/>
										<path style="opacity:0.16;fill:#9B9B9B;" d="M359.21,269.964c0.146-1.178,0.082-2.433-0.167-3.59
											c-0.189-0.876-0.489-1.725-1.084-2.388c-1.119-1.247-1.65-2.381-1.043-4.095c0.36-1.017,0.737-1.814,1.974-1.881
											c0.744-0.041,1.469,0.206,2.183,0.418c0.714,0.212,1.473,0.393,2.198,0.22c1.508-0.36,3.686-2.2,2.12,0.52
											c-0.948,1.645-1.887,3.296-2.83,4.944c-0.797,1.393-1.595,2.786-2.392,4.179
											C359.923,268.718,359.272,269.462,359.21,269.964z"/>
									</g>
									<g>
										<path style="fill:#5B6E84;" d="M360.729,259.806c0.481,0.471,0.488,1.243,0.017,1.724
											c-0.472,0.481-1.243,0.488-1.724,0.017c-0.481-0.471-0.488-1.243-0.017-1.724
											C359.476,259.342,360.248,259.335,360.729,259.806z"/>
										<path style="fill:#5B6E84;" d="M360.654,260.04c0.437,0.429,0.444,1.131,0.015,1.569s-1.131,0.444-1.568,0.015
											c-0.437-0.429-0.444-1.131-0.015-1.569S360.216,259.611,360.654,260.04z"/>
									</g>
								</g>
								<path style="fill:#5B6E84;" d="M373.853,258.571l-9.022,15.76c-1.067,1.864-3.444,2.51-5.308,1.443l-2.856-1.635
									l13.298-23.23l2.136,1.223C374.364,253.427,375.148,256.31,373.853,258.571z"/>
								<path style="fill:#A3A3A3;" d="M374.686,257.581l-9.523,16.636c-1.022,1.784-3.296,2.403-5.081,1.381l-3-1.718
									l13.124-22.927l3.172,1.816C375.068,253.738,375.653,255.892,374.686,257.581z"/>
								<path style="opacity:0.16;fill:#9B9B9B;" d="M371.094,256.203c-0.386,0.749-0.901,1.442-1.405,2.122
									c-2.598,3.509-5.209,7.429-5.096,11.794c0.023,0.896,0.162,1.803-0.01,2.682c-0.433,2.209-3.318,2.928-5.214,2.287
									c-0.258-0.087-2.313-1.164-2.288-1.208c2.064-3.606,4.128-7.211,6.192-10.817c1.309-2.286,2.632-4.563,3.932-6.855
									c0.611-1.077,1.997-4.335,3.777-3.418c0.695,0.358,0.796,1.324,0.615,2.086
									C371.488,255.341,371.312,255.781,371.094,256.203z"/>
							</g>
							<g>
								
									<rect x="378.99" y="288.551" transform="matrix(0.4968 -0.8679 0.8679 0.4968 -61.061 479.1559)" style="fill:#C7E0FF;" width="7.366" height="7.366"/>
								
									<line style="fill:none;stroke:#6F85A5;stroke-width:0.5;stroke-miterlimit:10;" x1="383.552" y1="284.613" x2="396.764" y2="261.851"/>
								
									<line style="fill:none;stroke:#6F85A5;stroke-width:0.5;stroke-miterlimit:10;" x1="385.24" y1="285.605" x2="398.453" y2="262.842"/>
								
									<line style="fill:none;stroke:#6F85A5;stroke-width:0.5;stroke-miterlimit:10;" x1="386.942" y1="286.393" x2="400.155" y2="263.631"/>
								
									<line style="fill:none;stroke:#6F85A5;stroke-width:0.5;stroke-miterlimit:10;" x1="388.646" y1="287.375" x2="401.859" y2="264.612"/>
							</g>
							<g>
								
									<rect x="369.312" y="283.089" transform="matrix(0.4968 -0.8679 0.8679 0.4968 -61.1923 468.0034)" style="fill:#C7E0FF;" width="7.366" height="7.366"/>
								
									<line style="fill:none;stroke:#6F85A5;stroke-width:0.5;stroke-miterlimit:10;" x1="373.563" y1="279.032" x2="386.776" y2="256.27"/>
								
									<line style="fill:none;stroke:#6F85A5;stroke-width:0.5;stroke-miterlimit:10;" x1="375.006" y1="280.021" x2="388.219" y2="257.259"/>
								
									<line style="fill:none;stroke:#6F85A5;stroke-width:0.5;stroke-miterlimit:10;" x1="376.583" y1="280.831" x2="382.499" y2="270.638"/>
								
									<line style="fill:none;stroke:#6F85A5;stroke-width:0.5;stroke-miterlimit:10;" x1="383.919" y1="268.278" x2="389.835" y2="258.086"/>
							</g>
							<g>
								
									<rect x="389.177" y="294.271" transform="matrix(0.4968 -0.8679 0.8679 0.4968 -60.899 490.8754)" style="fill:#C7E0FF;" width="7.366" height="7.366"/>
								
									<line style="fill:none;stroke:#6F85A5;stroke-width:0.5;stroke-miterlimit:10;" x1="393.888" y1="290.064" x2="407.1" y2="267.302"/>
								
									<line style="fill:none;stroke:#6F85A5;stroke-width:0.5;stroke-miterlimit:10;" x1="395.274" y1="290.999" x2="401.19" y2="280.806"/>
							</g>
							<g>
								
									<rect x="398.859" y="299.78" transform="matrix(0.4968 -0.8679 0.8679 0.4968 -60.8108 502.0446)" style="fill:#C7E0FF;" width="7.366" height="7.366"/>
								
									<line style="fill:none;stroke:#6F85A5;stroke-width:0.5;stroke-miterlimit:10;" x1="403.351" y1="295.988" x2="416.563" y2="273.226"/>
								
									<line style="fill:none;stroke:#6F85A5;stroke-width:0.5;stroke-miterlimit:10;" x1="404.87" y1="296.9" x2="418.083" y2="274.138"/>
								
									<line style="fill:none;stroke:#6F85A5;stroke-width:0.5;stroke-miterlimit:10;" x1="406.205" y1="297.934" x2="419.418" y2="275.172"/>
								
									<line style="fill:none;stroke:#6F85A5;stroke-width:0.5;stroke-miterlimit:10;" x1="407.845" y1="298.801" x2="413.761" y2="288.609"/>
							</g>
						</g>
					</g>
				</g>
				<path style="opacity:0.31;fill:#2F5682;" d="M420.526,245.662c-0.929,0.343-1.839,0.737-2.712,1.223
					c-7.095,3.947-4.121,7.244-0.455,11.778c1.921,2.375,4.125,4.913,7.201,5.29c2.052,0.251,4.132-0.525,6.096-1.328
					c6.384-2.496,11.468-5.917,18.125-7.996c3.94-1.231,7.946-2.492,11.419-4.811c4.25-2.837,7.581-7.433,8.061-12.448
					c0.815-8.526-8.174-10.184-14.856-7.684c-4.479,1.676-8.339,4.747-12.415,7.323c-4.812,3.041-10.008,5.429-15.393,7.075
					C423.907,244.6,422.185,245.05,420.526,245.662z"/>
				<path style="fill:#EB9091;" d="M403.36,251.027c-0.432-0.014-0.865,0.017-1.297,0.116c-1.665,0.381-2.968,1.667-4.55,2.269
					c-1.552,0.59-3.057,1.121-4.545,1.971c-3.217,1.836-6.05,4.692-7.152,8.22c-0.192,0.615-0.329,1.282-0.135,1.876
					c0.589,1.804,2.693,0.523,3.476-0.475c0.555-0.707,0.95-1.524,1.492-2.241c0.375-0.496,0.815-0.938,1.275-1.355
					c1.335-1.213,2.845-2.227,4.457-3.003c0.947-0.456,3.263-0.728,3.949-1.486c-2.988,3.301-5.579,6.338-6.232,10.835
					c-0.302,3.314,1.22,6.82,4.171,8.127c0.421,0.187,1.154,0.116,1.111-0.353c0.158,0.772,0.323,1.561,0.737,2.218
					c0.414,0.657,1.134,1.164,1.925,1.1c0.791-0.064,1.549-0.863,1.389-1.634c0.041,0.754,0.494,1.48,1.196,1.716
					c0.702,0.236,1.611-0.126,1.902-0.84c0.143-0.351,0.134-0.736,0.121-1.108c-0.075-2.101-0.211-4.197-0.407-6.284
					c0.716-1.624,3.829-5,4.628-5.894c2.096,0.888,4.415,1.418,6.724,1.076c2.308-0.342,4.598-1.657,5.766-3.734
					c0.215-0.382,0.398-0.795,0.714-1.1c0.715-0.691,1.873-0.622,2.66-1.228c0.688-0.53,0.942-1.485,0.836-2.324
					s-0.51-1.59-0.918-2.314c-0.944-1.677-1.974-3.358-3.491-4.525c-0.207-0.159-0.434-0.313-0.699-0.34
					c-0.294-0.03-0.585,0.1-0.863,0.222c-4.971,2.176-10.348,2.087-15.402,0.972C405.264,251.301,404.313,251.057,403.36,251.027z"
					/>
				<g>
					<g>
						<path style="fill:#EB9091;" d="M399.867,274.689c-3.711-5.187-0.956-13.302,4.829-15.603
							C399.912,262.655,397.684,268.977,399.867,274.689L399.867,274.689z"/>
					</g>
					<g>
						<path style="fill:#EB9091;" d="M402.29,276.038c-2.181-5.186,0.874-11.603,5.679-14.095
							C404.112,265.673,401.644,270.588,402.29,276.038L402.29,276.038z"/>
					</g>
				</g>
			</g>
		</g>
	</g>
</g>
</svg>
