<?xml version="1.0" encoding="utf-8"?>
<!-- Generator: Adobe Illustrator 27.5.0, SVG Export Plug-In . SVG Version: 6.00 Build 0)  -->
<svg version="1.1" xmlns="http://www.w3.org/2000/svg" xmlns:xlink="http://www.w3.org/1999/xlink" x="0px" y="0px"
	 viewBox="0 0 500 500" style="enable-background:new 0 0 500 500;" xml:space="preserve">
<g id="BACKGROUND">
	<rect style="fill:#FFFFFF;" width="500" height="500"/>
	<g>
		<polygon style="fill:#E2E6FF;" points="167.037,172.035 160.786,172.035 160.786,165.783 156.349,165.783 156.349,172.035 
			150.099,172.035 150.099,176.471 156.349,176.471 156.349,182.723 160.786,182.723 160.786,176.471 167.037,176.471 		"/>
		<polygon style="fill:#E2E6FF;" points="72.457,118.178 67.924,118.178 67.924,113.645 64.706,113.645 64.706,118.178 
			60.174,118.178 60.174,121.396 64.706,121.396 64.706,125.93 67.924,125.93 67.924,121.396 72.457,121.396 		"/>
		<polygon style="fill:#E2E6FF;" points="156.241,92.412 151.707,92.412 151.707,87.878 148.49,87.878 148.49,92.412 
			143.957,92.412 143.957,95.629 148.49,95.629 148.49,100.163 151.707,100.163 151.707,95.629 156.241,95.629 		"/>
		<polygon style="fill:#E2E6FF;" points="435.608,175.663 431.074,175.663 431.074,171.129 427.857,171.129 427.857,175.663 
			423.324,175.663 423.324,178.88 427.857,178.88 427.857,183.414 431.074,183.414 431.074,178.88 435.608,178.88 		"/>
		<polygon style="fill:#E2E6FF;" points="451.509,144.786 445.258,144.786 445.258,138.534 440.822,138.534 440.822,144.786 
			434.571,144.786 434.571,149.222 440.822,149.222 440.822,155.474 445.258,155.474 445.258,149.222 451.509,149.222 		"/>
		<polygon style="fill:#E2E6FF;" points="56.509,186.881 50.258,186.881 50.258,180.629 45.821,180.629 45.821,186.881 
			39.571,186.881 39.571,191.317 45.821,191.317 45.821,197.569 50.258,197.569 50.258,191.317 56.509,191.317 		"/>
		<polygon style="fill:#E2E6FF;" points="465.056,313.129 460.522,313.129 460.522,308.595 457.304,308.595 457.304,313.129 
			452.772,313.129 452.772,316.346 457.304,316.346 457.304,320.88 460.522,320.88 460.522,316.346 465.056,316.346 		"/>
	</g>
	<g>
		<circle style="fill:#D0DBF7;" cx="182.265" cy="82.514" r="3.91"/>
		<path style="fill:#D0DBF7;" d="M344.162,96.846c0,1.14-0.924,2.065-2.065,2.065c-1.14,0-2.064-0.924-2.064-2.065
			c0-1.14,0.924-2.065,2.064-2.065C343.238,94.782,344.162,95.706,344.162,96.846z"/>
		<path style="fill:#D0DBF7;" d="M433.375,108.041c0,2.159-1.75,3.91-3.91,3.91c-2.159,0-3.91-1.75-3.91-3.91
			c0-2.159,1.75-3.91,3.91-3.91C431.625,104.131,433.375,105.882,433.375,108.041z"/>
		<path style="fill:#D0DBF7;" d="M41.636,225.797c0,1.14-0.924,2.065-2.065,2.065c-1.14,0-2.064-0.924-2.064-2.065
			c0-1.14,0.924-2.064,2.064-2.064C40.711,223.732,41.636,224.656,41.636,225.797z"/>
		<path style="fill:#D0DBF7;" d="M479.537,296.977c0,2.159-1.75,3.91-3.91,3.91c-2.159,0-3.91-1.75-3.91-3.91
			c0-2.159,1.75-3.91,3.91-3.91C477.787,293.068,479.537,294.818,479.537,296.977z"/>
		<circle style="fill:#D0DBF7;" cx="43.472" cy="150.439" r="3.91"/>
	</g>
</g>
<g id="OBJECTS">
	<ellipse style="fill:#EDF0FC;" cx="250" cy="390.542" rx="231.485" ry="30.854"/>
	<g>
		<g>
			<g>
				<g>
					<path style="fill:#F9AB43;" d="M440.83,299.616c0,0-42.644,18.544-54.886,34.737c-12.242,16.193-2.187,35.405-2.187,35.405
						s20.855,5.939,34.22-9.34C431.344,345.139,440.83,299.616,440.83,299.616z"/>
					<g>
						<defs>
							<path id="SVGID_1_" d="M440.83,299.616c0,0-42.644,18.544-54.886,34.737c-12.242,16.193-2.187,35.405-2.187,35.405
								s20.855,5.939,34.22-9.34C431.344,345.139,440.83,299.616,440.83,299.616z"/>
						</defs>
						<clipPath id="SVGID_00000059308723785930914690000013216876038346760630_">
							<use xlink:href="#SVGID_1_"  style="overflow:visible;"/>
						</clipPath>
						<path style="clip-path:url(#SVGID_00000059308723785930914690000013216876038346760630_);fill:#EB725F;" d="M452.383,326.179
							c1.758-0.271,3.515-0.542,5.272-0.813c0.903-0.139,0.762-1.556-0.146-1.416c-12.396,1.913-24.791,3.825-37.187,5.738
							c-1.161,0.179-2.321,0.358-3.482,0.537c0.965-1.186,1.93-2.372,2.895-3.558c3.379-4.153,6.758-8.306,10.138-12.459
							c12.293-1.897,24.587-3.793,36.88-5.69c1.757-0.271,3.515-0.542,5.272-0.814c0.903-0.139,0.762-1.556-0.145-1.416
							c-12.396,1.913-24.791,3.825-37.187,5.738c-1.161,0.179-2.321,0.358-3.482,0.537c1.87-2.299,3.741-4.597,5.611-6.896
							c1.886-2.317,3.771-4.635,5.657-6.952c0.865-1.063,1.937-2.114,2.667-3.277c0.033-0.053,0.082-0.1,0.121-0.149
							c0.578-0.71-0.525-1.61-1.104-0.898c-2.264,2.783-4.529,5.566-6.793,8.349c-2.421,2.975-4.842,5.95-7.262,8.926
							c-0.617-11.922-1.233-23.845-1.85-35.767c-0.092-1.776-0.184-3.552-0.275-5.328c-0.048-0.917-1.463-0.768-1.416,0.146
							c0.648,12.526,1.296,25.051,1.943,37.577c0.087,1.672,0.173,3.345,0.26,5.017c-2.573,3.163-5.147,6.325-7.72,9.488
							c-1.771,2.177-3.542,4.353-5.313,6.53c-0.617-11.922-1.233-23.845-1.85-35.767c-0.092-1.776-0.184-3.552-0.276-5.328
							c-0.047-0.917-1.463-0.768-1.416,0.145c0.648,12.526,1.296,25.051,1.944,37.577c0.086,1.672,0.173,3.345,0.259,5.017
							c-4.344,5.339-8.689,10.678-13.033,16.018c-0.617-11.923-1.233-23.845-1.85-35.767c-0.092-1.776-0.184-3.552-0.276-5.328
							c-0.047-0.917-1.463-0.768-1.416,0.145c0.648,12.526,1.296,25.051,1.943,37.577c0.086,1.672,0.173,3.345,0.26,5.017
							c-4.344,5.339-8.689,10.678-13.033,16.018c-0.617-11.922-1.233-23.845-1.85-35.767c-0.092-1.776-0.184-3.552-0.276-5.328
							c-0.047-0.917-1.463-0.768-1.416,0.145c0.648,12.526,1.296,25.051,1.944,37.577c0.086,1.672,0.173,3.345,0.259,5.017
							c-0.514,0.631-1.027,1.262-1.541,1.894c-1.886,2.317-3.771,4.635-5.657,6.952c-0.865,1.063-1.937,2.114-2.667,3.277
							c-0.033,0.053-0.082,0.1-0.121,0.149c-0.578,0.71,0.525,1.61,1.104,0.898c2.264-2.783,4.529-5.566,6.793-8.349
							c1.064-1.308,2.128-2.616,3.192-3.923c12.293-1.897,24.586-3.793,36.88-5.69c1.757-0.271,3.515-0.542,5.272-0.813
							c0.903-0.139,0.762-1.556-0.146-1.416c-12.396,1.913-24.791,3.825-37.187,5.738c-1.16,0.179-2.321,0.358-3.482,0.537
							c3.93-4.83,7.86-9.66,11.79-14.49c0.414-0.509,0.829-1.018,1.243-1.528c12.293-1.897,24.587-3.793,36.88-5.69
							c1.757-0.271,3.515-0.542,5.272-0.814c0.903-0.139,0.762-1.556-0.145-1.416c-12.396,1.913-24.791,3.825-37.187,5.738
							c-1.161,0.179-2.321,0.358-3.482,0.537c4.344-5.339,8.689-10.678,13.033-16.018
							C427.797,329.973,440.09,328.076,452.383,326.179z"/>
					</g>
				</g>
				<path style="opacity:0.1;fill:#0046A0;" d="M432.884,329.152c-1.435,2.04-2.953,4.064-4.576,6.058
					c-14.119,17.353-31.73,28.241-46.332,30.135c0.914,2.748,1.781,4.412,1.781,4.412s20.855,5.939,34.22-9.34
					C423.857,353.698,428.984,341.128,432.884,329.152z"/>
			</g>
			<g>
				<g>
					<path style="fill:#EB725F;" d="M475.628,340.722c0,0-44.356,0.355-62.98,8.418c-18.623,8.064-20.944,25.255-20.944,25.255
						s13.56,10.82,32.592,3.774C443.328,371.125,475.628,340.722,475.628,340.722z"/>
					<g>
						<defs>
							<path id="SVGID_00000093146732283685853880000000122682313699749259_" d="M475.628,340.722c0,0-44.356,0.355-62.98,8.418
								c-18.623,8.064-20.944,25.255-20.944,25.255s13.56,10.82,32.592,3.774C443.328,371.125,475.628,340.722,475.628,340.722z"/>
						</defs>
						<clipPath id="SVGID_00000176040168347997309740000001597200734136908951_">
							<use xlink:href="#SVGID_00000093146732283685853880000000122682313699749259_"  style="overflow:visible;"/>
						</clipPath>
						<path style="clip-path:url(#SVGID_00000176040168347997309740000001597200734136908951_);fill:#FFCF74;" d="M470.529,363.763
							c1.561,0.347,3.122,0.693,4.683,1.04c0.802,0.178,1.456-0.903,0.65-1.082c-11.009-2.444-22.018-4.889-33.027-7.333
							c-1.031-0.229-2.061-0.458-3.092-0.687c1.419-0.569,2.839-1.139,4.258-1.708c4.969-1.994,9.938-3.988,14.907-5.982
							c10.918,2.424,21.836,4.848,32.754,7.273c1.561,0.346,3.122,0.693,4.683,1.04c0.802,0.178,1.456-0.903,0.65-1.082
							c-11.009-2.444-22.018-4.889-33.027-7.333c-1.031-0.229-2.061-0.458-3.092-0.687c2.75-1.104,5.501-2.207,8.251-3.311
							c2.773-1.112,5.546-2.225,8.318-3.338c1.272-0.51,2.704-0.948,3.921-1.573c0.055-0.028,0.12-0.048,0.178-0.072
							c0.85-0.341,0.45-1.342-0.401-1c-3.33,1.336-6.659,2.672-9.989,4.008c-3.56,1.428-7.12,2.857-10.679,4.285
							c5.964-8.924,11.929-17.849,17.893-26.773c0.888-1.329,1.777-2.659,2.665-3.988c0.458-0.686-0.761-1.016-1.218-0.333
							c-6.266,9.376-12.532,18.752-18.798,28.128c-0.837,1.252-1.673,2.504-2.51,3.756c-3.784,1.518-7.568,3.037-11.352,4.555
							c-2.604,1.045-5.208,2.09-7.813,3.135c5.964-8.924,11.929-17.849,17.893-26.773c0.888-1.329,1.777-2.659,2.665-3.988
							c0.458-0.686-0.761-1.016-1.218-0.333c-6.266,9.376-12.532,18.752-18.798,28.127c-0.837,1.252-1.673,2.504-2.51,3.756
							c-6.388,2.563-12.777,5.126-19.165,7.69c5.964-8.924,11.929-17.849,17.893-26.773c0.888-1.329,1.777-2.659,2.665-3.988
							c0.459-0.686-0.761-1.016-1.218-0.333c-6.266,9.376-12.532,18.752-18.798,28.128c-0.837,1.252-1.673,2.504-2.51,3.755
							c-6.388,2.563-12.777,5.127-19.165,7.69c5.964-8.924,11.929-17.849,17.893-26.773c0.888-1.329,1.777-2.659,2.665-3.988
							c0.459-0.686-0.761-1.016-1.218-0.333c-6.266,9.376-12.532,18.752-18.798,28.128c-0.837,1.252-1.673,2.504-2.51,3.756
							c-0.755,0.303-1.51,0.606-2.266,0.909c-2.773,1.113-5.546,2.225-8.318,3.338c-1.272,0.51-2.704,0.948-3.922,1.573
							c-0.055,0.028-0.12,0.048-0.178,0.071c-0.85,0.341-0.45,1.342,0.401,1c3.33-1.336,6.66-2.672,9.989-4.008
							c1.565-0.628,3.13-1.256,4.694-1.884c10.918,2.424,21.836,4.848,32.754,7.273c1.561,0.346,3.122,0.693,4.682,1.04
							c0.802,0.178,1.456-0.903,0.65-1.082c-11.009-2.444-22.018-4.889-33.027-7.333c-1.031-0.229-2.061-0.458-3.092-0.687
							c5.779-2.319,11.558-4.638,17.337-6.956c0.609-0.244,1.218-0.489,1.828-0.733c10.918,2.424,21.836,4.848,32.754,7.273
							c1.561,0.347,3.122,0.693,4.683,1.04c0.802,0.178,1.456-0.903,0.65-1.082c-11.009-2.444-22.018-4.889-33.027-7.333
							c-1.031-0.229-2.062-0.458-3.092-0.686c6.388-2.563,12.777-5.126,19.165-7.69
							C448.693,358.915,459.611,361.339,470.529,363.763z"/>
					</g>
				</g>
				<path style="opacity:0.1;fill:#0046A0;" d="M453.23,359.892c-2.26,1.049-4.578,2.061-6.965,3.018
					c-20.762,8.331-40.831,10.843-53.604,7.701c-0.753,2.297-0.958,3.784-0.958,3.784s13.56,10.82,32.592,3.774
					C432.667,375.071,443.603,367.454,453.23,359.892z"/>
			</g>
		</g>
		<g>
			<g>
				<g>
					<path style="fill:#F9AB43;" d="M30.98,248.428c0,0,26.196,38.421,44.393,47.417c18.198,8.996,35.189-4.476,35.189-4.476
						s1.932-21.598-15.578-31.868S30.98,248.428,30.98,248.428z"/>
					<g>
						<defs>
							<path id="SVGID_00000054231928692233965500000012401351661575370942_" d="M30.98,248.428c0,0,26.196,38.421,44.393,47.417
								c18.198,8.996,35.189-4.476,35.189-4.476s1.932-21.598-15.578-31.868S30.98,248.428,30.98,248.428z"/>
						</defs>
						<clipPath id="SVGID_00000054966100518920636620000012982105110836215468_">
							<use xlink:href="#SVGID_00000054231928692233965500000012401351661575370942_"  style="overflow:visible;"/>
						</clipPath>
						<path style="clip-path:url(#SVGID_00000054966100518920636620000012982105110836215468_);fill:#EB725F;" d="M54.913,232.108
							c-0.595-1.676-1.19-3.352-1.786-5.027c-0.306-0.861-1.671-0.457-1.363,0.408c4.198,11.819,8.396,23.638,12.594,35.457
							c0.393,1.107,0.786,2.213,1.179,3.32c-1.346-0.726-2.692-1.452-4.037-2.178c-4.712-2.542-9.424-5.085-14.136-7.628
							c-4.163-11.721-8.327-23.442-12.49-35.164c-0.595-1.676-1.19-3.351-1.786-5.027c-0.306-0.861-1.671-0.457-1.363,0.408
							c4.198,11.819,8.396,23.638,12.594,35.457c0.393,1.107,0.786,2.213,1.179,3.32c-2.608-1.407-5.216-2.814-7.824-4.222
							c-2.629-1.419-5.259-2.837-7.888-4.256c-1.206-0.651-2.439-1.507-3.719-2.006c-0.058-0.023-0.114-0.061-0.169-0.091
							c-0.806-0.435-1.483,0.817-0.676,1.253c3.157,1.704,6.315,3.407,9.472,5.111c3.376,1.821,6.751,3.643,10.127,5.464
							c-11.597,2.837-23.193,5.673-34.789,8.51c-1.727,0.422-3.455,0.845-5.182,1.267c-0.892,0.218-0.48,1.581,0.408,1.364
							c12.183-2.98,24.366-5.96,36.55-8.94c1.627-0.398,3.253-0.796,4.88-1.194c3.588,1.936,7.177,3.872,10.765,5.808
							c2.47,1.332,4.939,2.665,7.409,3.997c-11.597,2.836-23.193,5.673-34.789,8.509c-1.727,0.423-3.455,0.845-5.182,1.268
							c-0.892,0.218-0.48,1.581,0.408,1.364c12.183-2.98,24.366-5.96,36.55-8.94c1.627-0.398,3.253-0.796,4.88-1.194
							c6.058,3.269,12.116,6.537,18.173,9.806c-11.596,2.836-23.193,5.673-34.789,8.509c-1.727,0.422-3.455,0.845-5.182,1.267
							c-0.892,0.218-0.48,1.581,0.408,1.363c12.183-2.98,24.366-5.96,36.55-8.94c1.627-0.398,3.253-0.796,4.88-1.194
							c6.058,3.269,12.116,6.537,18.173,9.806c-11.596,2.837-23.193,5.673-34.789,8.509c-1.727,0.423-3.455,0.845-5.182,1.268
							c-0.892,0.218-0.48,1.581,0.408,1.363c12.183-2.98,24.366-5.96,36.55-8.94c1.627-0.398,3.253-0.796,4.88-1.194
							c0.716,0.386,1.432,0.773,2.148,1.159c2.629,1.419,5.259,2.837,7.888,4.256c1.206,0.651,2.439,1.507,3.719,2.007
							c0.058,0.023,0.114,0.061,0.169,0.091c0.806,0.435,1.483-0.817,0.676-1.252c-3.157-1.704-6.315-3.407-9.472-5.111
							c-1.484-0.801-2.968-1.601-4.451-2.402c-4.163-11.721-8.327-23.443-12.49-35.164c-0.595-1.676-1.19-3.352-1.786-5.027
							c-0.306-0.861-1.671-0.457-1.363,0.408c4.198,11.819,8.396,23.638,12.594,35.457c0.393,1.107,0.786,2.213,1.179,3.32
							c-5.48-2.957-10.96-5.914-16.44-8.871c-0.578-0.312-1.155-0.624-1.733-0.935c-4.163-11.721-8.327-23.442-12.49-35.164
							c-0.595-1.676-1.19-3.352-1.786-5.027c-0.306-0.861-1.671-0.457-1.363,0.408c4.198,11.819,8.396,23.638,12.594,35.457
							c0.393,1.107,0.786,2.213,1.179,3.32c-6.058-3.269-12.116-6.537-18.173-9.806C63.239,255.551,59.076,243.829,54.913,232.108z"
							/>
					</g>
				</g>
				<path style="opacity:0.1;fill:#0046A0;" d="M61.482,250.706c2.272,1.028,4.545,2.141,6.808,3.362
					c19.688,10.623,33.679,25.886,38.272,39.875c2.528-1.413,4.001-2.575,4.001-2.575s1.932-21.598-15.578-31.868
					C87.283,254.982,73.975,252.298,61.482,250.706z"/>
			</g>
			<g>
				<g>
					<path style="fill:#EB725F;" d="M64.849,206.553c0,0,8.648,43.507,20.054,60.292c11.406,16.786,28.728,15.849,28.728,15.849
						s8.091-15.345-2.391-32.723S64.849,206.553,64.849,206.553z"/>
					<g>
						<defs>
							<path id="SVGID_00000083052864930660619940000012659368018038612390_" d="M64.849,206.553c0,0,8.648,43.507,20.054,60.292
								c11.406,16.786,28.728,15.849,28.728,15.849s8.091-15.345-2.391-32.723S64.849,206.553,64.849,206.553z"/>
						</defs>
						<clipPath id="SVGID_00000042730170044327794260000005963144721059522473_">
							<use xlink:href="#SVGID_00000083052864930660619940000012659368018038612390_"  style="overflow:visible;"/>
						</clipPath>
						<path style="clip-path:url(#SVGID_00000042730170044327794260000005963144721059522473_);fill:#FFCF74;" d="M88.438,207.251
							c0.048-1.598,0.097-3.196,0.145-4.794c0.025-0.821-1.16-1.261-1.185-0.436c-0.341,11.272-0.683,22.544-1.024,33.816
							c-0.032,1.055-0.064,2.111-0.096,3.166c-0.825-1.288-1.65-2.575-2.475-3.863c-2.888-4.508-5.777-9.017-8.665-13.525
							c0.339-11.179,0.677-22.357,1.016-33.536c0.048-1.598,0.097-3.196,0.145-4.794c0.025-0.821-1.16-1.261-1.185-0.436
							c-0.341,11.272-0.683,22.544-1.024,33.815c-0.032,1.055-0.064,2.111-0.096,3.166c-1.599-2.495-3.197-4.99-4.796-7.486
							c-1.612-2.516-3.223-5.031-4.835-7.547c-0.739-1.154-1.437-2.479-2.279-3.558c-0.038-0.049-0.07-0.109-0.103-0.161
							c-0.494-0.771-1.402-0.191-0.908,0.581c1.935,3.021,3.871,6.042,5.806,9.063c2.069,3.23,4.138,6.459,6.207,9.689
							c-9.883-4.189-19.765-8.379-29.648-12.568c-1.472-0.624-2.944-1.248-4.416-1.872c-0.76-0.322-0.856,0.938-0.099,1.258
							c10.383,4.401,20.765,8.802,31.148,13.204c1.386,0.588,2.773,1.175,4.159,1.763c2.199,3.433,4.399,6.866,6.599,10.299
							c1.514,2.363,3.028,4.725,4.541,7.088c-9.883-4.189-19.765-8.379-29.648-12.568c-1.472-0.624-2.944-1.248-4.416-1.872
							c-0.76-0.322-0.856,0.938-0.099,1.258c10.383,4.401,20.765,8.802,31.148,13.204c1.386,0.588,2.773,1.175,4.159,1.763
							c3.713,5.796,7.427,11.592,11.14,17.388c-9.883-4.189-19.765-8.378-29.648-12.568c-1.472-0.624-2.944-1.248-4.416-1.872
							c-0.76-0.322-0.856,0.938-0.099,1.259c10.383,4.401,20.765,8.802,31.148,13.203c1.386,0.588,2.773,1.175,4.159,1.763
							c3.713,5.796,7.427,11.592,11.14,17.388c-9.883-4.189-19.765-8.378-29.648-12.568c-1.472-0.624-2.944-1.248-4.416-1.872
							c-0.76-0.322-0.856,0.938-0.099,1.258c10.383,4.401,20.765,8.802,31.148,13.204c1.386,0.588,2.773,1.175,4.159,1.763
							c0.439,0.685,0.878,1.37,1.317,2.056c1.612,2.516,3.223,5.031,4.835,7.547c0.739,1.154,1.437,2.479,2.28,3.558
							c0.038,0.049,0.07,0.109,0.103,0.161c0.494,0.771,1.402,0.191,0.908-0.581c-1.935-3.021-3.871-6.042-5.806-9.063
							c-0.91-1.42-1.819-2.839-2.729-4.259c0.339-11.179,0.677-22.357,1.016-33.536c0.048-1.598,0.097-3.196,0.145-4.794
							c0.025-0.821-1.16-1.261-1.185-0.436c-0.341,11.272-0.683,22.544-1.024,33.815c-0.032,1.055-0.064,2.111-0.096,3.166
							c-3.359-5.243-6.718-10.486-10.077-15.729c-0.354-0.553-0.708-1.105-1.062-1.658c0.339-11.179,0.677-22.357,1.016-33.536
							c0.048-1.598,0.097-3.196,0.145-4.794c0.025-0.821-1.16-1.261-1.185-0.436c-0.341,11.272-0.683,22.544-1.024,33.815
							c-0.032,1.055-0.064,2.111-0.096,3.166c-3.713-5.796-7.427-11.592-11.14-17.388C87.761,229.609,88.099,218.43,88.438,207.251z
							"/>
					</g>
				</g>
				<path style="opacity:0.1;fill:#0046A0;" d="M87.872,224.968c1.453,2.024,2.881,4.112,4.268,6.277
					c12.068,18.837,18.291,38.081,17.595,51.217c2.397,0.311,3.897,0.233,3.897,0.233s8.091-15.345-2.391-32.723
					C106.63,242.328,97.101,233.01,87.872,224.968z"/>
			</g>
		</g>
	</g>
	<g>
		<g>
			<path style="fill:#6E7FDD;" d="M399.914,384.155c0,3.031-2.48,5.51-5.51,5.51H105.596c-3.031,0-5.51-2.48-5.51-5.51V197.354
				c0-3.031,2.48-5.511,5.51-5.511h288.808c3.031,0,5.51,2.48,5.51,5.511V384.155z"/>
			<rect x="114.473" y="207.267" style="fill:#D0DBF7;" width="271.054" height="172.285"/>
			<path style="fill:#6E7FDD;" d="M80.606,371.551v15.916c0,3.425,2.802,6.227,6.227,6.227h326.336c3.425,0,6.227-2.802,6.227-6.227
				v-15.916H80.606z"/>
			<path style="fill:#92A6F4;" d="M213.114,370.846v11.353c0,1.014,0.83,1.844,1.844,1.844h70.084c1.014,0,1.844-0.83,1.844-1.844
				v-11.353H213.114z"/>
		</g>
		<g>
			<g>
				<g>
					<rect x="129.946" y="221.942" style="fill:#FFFFFF;" width="235.153" height="135.958"/>
					<rect x="129.946" y="221.942" style="fill:#E2E6FF;" width="235.153" height="13.101"/>
				</g>
				<g>
					<path style="fill:#EB725F;" d="M141.376,228.795c0,1.656-1.342,2.998-2.998,2.998c-1.656,0-2.998-1.342-2.998-2.998
						c0-1.656,1.342-2.998,2.998-2.998C140.034,225.797,141.376,227.139,141.376,228.795z"/>
					<path style="fill:#F9AB43;" d="M151.471,228.795c0,1.656-1.342,2.998-2.998,2.998c-1.656,0-2.998-1.342-2.998-2.998
						c0-1.656,1.342-2.998,2.998-2.998C150.129,225.797,151.471,227.139,151.471,228.795z"/>
					<path style="fill:#6E7FDD;" d="M161.566,228.795c0,1.656-1.342,2.998-2.998,2.998c-1.656,0-2.998-1.342-2.998-2.998
						c0-1.656,1.342-2.998,2.998-2.998C160.224,225.797,161.566,227.139,161.566,228.795z"/>
				</g>
			</g>
			<g>
				<g>
					<path style="fill:#D0DBF7;" d="M243.912,303.84c0-3.767,1.496-6.704,4.487-8.809l1.44-0.996
						c1.367-0.886,2.318-1.615,2.853-2.188c0.535-0.572,0.804-1.283,0.804-2.133c0-2.142-1.793-3.213-5.375-3.213
						c-1.662,0-3.379,0.222-5.152,0.665c-1.772,0.442-3.453,1.072-5.041,1.883v-8.531c3.397-1.551,7.202-2.326,11.412-2.326
						c4.542,0,8.144,0.951,10.802,2.853c2.66,1.902,3.989,4.533,3.989,7.893c0,1.884-0.424,3.407-1.273,4.57
						c-0.85,1.163-2.291,2.465-4.321,3.905c-1.367,0.998-2.364,1.764-2.992,2.3c-0.628,0.536-1.099,1.135-1.412,1.8
						c-0.314,0.665-0.471,1.478-0.471,2.437v1.053h-9.75V303.84z M245.048,317.107c-0.98-0.978-1.469-2.188-1.469-3.629
						c0-1.477,0.489-2.696,1.469-3.656c0.977-0.96,2.207-1.44,3.683-1.44c1.441,0,2.669,0.489,3.684,1.468
						c1.015,0.98,1.523,2.188,1.523,3.629c0,1.44-0.509,2.65-1.523,3.629c-1.016,0.978-2.244,1.468-3.684,1.468
						C247.255,318.575,246.026,318.086,245.048,317.107z"/>
				</g>
				<g>
					<path style="fill:#D0DBF7;" d="M250,344.146c-26.024,0-47.196-21.172-47.196-47.196c0-26.024,21.172-47.195,47.196-47.195
						c26.024,0,47.195,21.172,47.195,47.195C297.195,322.974,276.024,344.146,250,344.146z M250,252.656
						c-24.424,0-44.294,19.87-44.294,44.293c0,24.424,19.87,44.294,44.294,44.294c24.423,0,44.293-19.87,44.293-44.294
						C294.293,272.526,274.423,252.656,250,252.656z"/>
				</g>
			</g>
		</g>
	</g>
	<g>
		<g>
			<path style="fill:#EB725F;" d="M461.682,284.342c0,2.834-2.319,5.154-5.154,5.154H315.585c-2.835,0-5.154-2.319-5.154-5.154
				v-27.888c0-2.834,2.319-5.154,5.154-5.154h140.943c2.834,0,5.154,2.319,5.154,5.154V284.342z"/>
			<g>
				<rect x="354.703" y="256.405" style="fill:#FFCF74;" width="2.061" height="27.986"/>
			</g>
		</g>
		<g>
			<path style="fill:#FFFFFF;" d="M344.162,275.95l-7.035-3.567c0.497-1.427,0.521-2.967,0.044-4.428
				c-0.577-1.763-1.806-3.197-3.461-4.036c-1.655-0.839-3.537-0.984-5.301-0.407c-1.763,0.577-3.197,1.806-4.036,3.46
				c-0.84,1.655-0.984,3.538-0.407,5.301c0.577,1.764,1.806,3.197,3.461,4.036c1.655,0.839,3.537,0.984,5.301,0.407
				c1.46-0.478,2.689-1.408,3.546-2.651l7.035,3.567L344.162,275.95z M328.28,274.626c-1.205-0.611-2.101-1.655-2.521-2.94
				c-0.42-1.284-0.315-2.656,0.296-3.861c0.611-1.205,1.655-2.1,2.94-2.521c1.285-0.42,2.656-0.315,3.861,0.296v0
				c1.205,0.611,2.101,1.655,2.521,2.94c0.42,1.285,0.315,2.656-0.297,3.862c-0.611,1.205-1.655,2.1-2.94,2.521
				C330.857,275.343,329.486,275.238,328.28,274.626z"/>
			<path style="fill:#FFFFFF;" d="M327.56,268.165l1.009,0.512c0.513-1.011,1.753-1.417,2.764-0.904l0.512-1.009
				C330.277,265.969,328.355,266.597,327.56,268.165z"/>
		</g>
	</g>
	<g>
		<g>
			<g>
				<rect x="43.472" y="293.099" style="fill:#F5F9FF;" width="138.794" height="88.294"/>
				<rect x="43.472" y="293.099" style="fill:#E2E6FF;" width="138.794" height="11.012"/>
			</g>
			<g>
				<circle style="fill:#EB725F;" cx="50.56" cy="298.86" r="2.52"/>
				<path style="fill:#F9AB43;" d="M61.566,298.86c0,1.392-1.128,2.52-2.52,2.52c-1.392,0-2.52-1.128-2.52-2.52
					c0-1.392,1.128-2.52,2.52-2.52C60.438,296.34,61.566,297.468,61.566,298.86z"/>
				<circle style="fill:#6E7FDD;" cx="67.532" cy="298.86" r="2.52"/>
			</g>
		</g>
		<g>
			<g>
				<path style="fill:#FFCF74;" d="M63.919,341.545c2.04-2.462,4.079-4.387,6.119-6.144c2.039-1.784,4.079-3.276,6.119-4.693
					c4.079-2.759,8.158-4.906,12.237-6.549c8.158-3.308,16.316-4.738,24.475-4.775c8.158-0.008,16.317,1.415,24.475,4.712
					c4.079,1.639,8.158,3.794,12.237,6.557c2.039,1.425,4.079,2.922,6.119,4.714c2.039,1.764,4.079,3.7,6.119,6.178
					c-2.04,2.478-4.079,4.414-6.119,6.178c-2.04,1.793-4.079,3.289-6.119,4.714c-4.079,2.763-8.158,4.918-12.237,6.557
					c-8.158,3.297-16.317,4.72-24.475,4.712c-8.158-0.037-16.316-1.467-24.475-4.775c-4.079-1.643-8.158-3.79-12.237-6.549
					c-2.039-1.416-4.079-2.909-6.119-4.693C67.998,345.932,65.959,344.008,63.919,341.545z"/>
				<path style="fill:#EB725F;" d="M124.775,342.786c-6.462,0-11.701-5.239-11.701-11.701c0-2.599,0.858-4.991,2.291-6.933
					c-0.818-0.117-1.647-0.197-2.497-0.197c-9.715,0-17.591,7.876-17.591,17.591c0,9.715,7.876,17.591,17.591,17.591
					c9.715,0,17.591-7.876,17.591-17.591c0-0.077-0.01-0.152-0.012-0.23C128.767,342.25,126.835,342.786,124.775,342.786z"/>
				<path style="fill:#6E7FDD;" d="M63.919,341.545c2.851-3.632,6.264-6.815,9.884-9.726c3.658-2.868,7.576-5.452,11.762-7.574
					c4.162-2.172,8.612-3.815,13.188-5.017c4.589-1.162,9.333-1.745,14.085-1.803c1.188,0.036,2.379,0.003,3.563,0.109l3.549,0.327
					c2.341,0.384,4.704,0.687,6.983,1.351c2.315,0.526,4.522,1.393,6.758,2.142l3.249,1.393l1.607,0.727l1.552,0.835
					c8.32,4.364,15.639,10.32,21.719,17.235c-7.282-5.634-14.935-10.64-23.143-14.266l-1.532-0.689l-1.575-0.578l-3.132-1.178
					c-2.142-0.61-4.247-1.342-6.434-1.734c-2.153-0.541-4.351-0.822-6.538-1.142l-3.305-0.256c-1.101-0.088-2.209-0.028-3.312-0.058
					c-8.841-0.026-17.645,2.051-25.887,5.571c-4.117,1.779-8.123,3.882-11.967,6.288C71.127,335.884,67.431,338.569,63.919,341.545z
					"/>
			</g>
			<g>
				
					<rect x="71.498" y="339.533" transform="matrix(0.7071 -0.7071 0.7071 0.7071 -208.3474 178.95)" style="fill:#6E7FDD;" width="80.681" height="2.879"/>
			</g>
		</g>
	</g>
	<g>
		<g>
			<g>
				<rect x="192.972" y="103.343" style="fill:#F5F9FF;" width="138.794" height="88.294"/>
				<rect x="192.972" y="103.343" style="fill:#E2E6FF;" width="138.794" height="11.012"/>
			</g>
			<g>
				<circle style="fill:#C1D1F4;" cx="200.06" cy="109.104" r="2.52"/>
				<path style="fill:#C1D1F4;" d="M211.066,109.104c0,1.392-1.128,2.52-2.52,2.52s-2.52-1.128-2.52-2.52
					c0-1.392,1.128-2.52,2.52-2.52S211.066,107.712,211.066,109.104z"/>
				<circle style="fill:#C1D1F4;" cx="217.032" cy="109.104" r="2.52"/>
			</g>
		</g>
		<g>
			<g>
				<rect x="180.603" y="123.958" style="fill:#F5F9FF;" width="138.794" height="88.294"/>
				<rect x="180.603" y="123.958" style="fill:#E2E6FF;" width="138.794" height="11.012"/>
			</g>
			<g>
				<circle style="fill:#EB725F;" cx="187.692" cy="129.718" r="2.52"/>
				<path style="fill:#F9AB43;" d="M198.698,129.718c0,1.392-1.128,2.52-2.52,2.52c-1.392,0-2.52-1.128-2.52-2.52
					c0-1.392,1.128-2.52,2.52-2.52C197.569,127.198,198.698,128.326,198.698,129.718z"/>
				<circle style="fill:#6E7FDD;" cx="204.663" cy="129.718" r="2.52"/>
			</g>
		</g>
		<g>
			<g>
				<path style="fill:#EB725F;" d="M275.118,198.607H225.14c-2.818,0-5.044-1.126-6.107-3.089c-1.063-1.963-0.79-4.443,0.751-6.802
					v-0.001l24.343-37.295c1.49-2.283,3.678-3.593,6.002-3.593c2.324,0,4.512,1.31,6.002,3.592l24.344,37.297
					c1.54,2.36,1.813,4.839,0.75,6.802C280.161,197.48,277.936,198.607,275.118,198.607z M224.209,191.603
					c-0.546,0.837-0.553,1.322-0.525,1.406c0.046,0.053,0.456,0.312,1.455,0.312h49.978c0.999,0,1.409-0.26,1.464-0.329
					c0.019-0.068,0.012-0.553-0.534-1.39l-24.343-37.296c-0.489-0.749-1.078-1.196-1.576-1.196c-0.498,0-1.087,0.447-1.577,1.197
					L224.209,191.603z"/>
			</g>
			<g>
				<path style="fill:#EB725F;" d="M248.597,188.494c-0.403-0.404-0.605-0.902-0.605-1.495c0-0.593,0.202-1.092,0.605-1.495
					c0.404-0.404,0.902-0.606,1.495-0.606c0.594,0,1.098,0.202,1.514,0.606c0.414,0.404,0.623,0.902,0.623,1.495
					c0,0.594-0.209,1.092-0.623,1.495c-0.416,0.403-0.92,0.605-1.514,0.605C249.499,189.099,249.001,188.897,248.597,188.494z
					 M247.351,163.678h5.554l-1.032,17.766h-3.49L247.351,163.678z"/>
			</g>
		</g>
	</g>
	<g>
		<path style="fill:#F9AB43;" d="M402.345,119.625c-5.689-5.493-13.336-8.541-21.231-8.591c-8.169,0.052-16.105,3.322-21.826,9.182
			c-5.795,5.935-9.011,14.169-8.685,22.468c0.209,5.325,1.815,10.518,4.627,15.035c-1.027,4-2.053,8-3.08,12
			c-0.493,1.922,1.252,3.657,3.17,3.17c4.484-1.139,8.968-2.277,13.452-3.416c7.036,3.017,15.039,3.52,22.317,0.957
			c6.5-2.289,12.08-6.687,15.802-12.492C414.603,145.908,412.6,129.526,402.345,119.625z M405.748,147.701
			c-1.881,7.505-7.126,13.721-14.121,16.986c-3.557,1.661-7.533,2.37-11.441,2.245c-2.557-0.082-5.062-0.575-7.48-1.406
			c-1.596-0.549-3.031-1.561-4.753-1.164c-3.258,0.75-6.497,1.603-9.736,2.451c0.353-1.375,0.706-2.749,1.058-4.124
			c0.37-1.443,0.772-2.883,1.112-4.334c0.192-0.817,0.257-1.564-0.163-2.362c-0.784-1.489-1.769-2.827-2.445-4.386
			c-4.51-10.412-1.293-22.639,7.373-29.791c4.465-3.685,10.206-5.593,15.961-5.629c7.796,0.049,15.268,3.625,20.068,9.811
			C405.909,132.091,407.622,140.223,405.748,147.701z"/>
		<path style="fill:#CFD6F9;" d="M381.079,124.485c-9.419,0-17.081,7.663-17.081,17.081c0,9.419,7.662,17.082,17.081,17.082
			c9.419,0,17.081-7.663,17.081-17.082C398.16,132.148,390.498,124.485,381.079,124.485z M369.03,141.567
			c0-6.643,5.405-12.049,12.049-12.049c2.355,0,4.598,0.668,6.548,1.942l-16.655,16.655
			C369.698,146.166,369.03,143.923,369.03,141.567z M381.079,153.616c-2.356,0-4.599-0.668-6.549-1.942l16.656-16.656
			c1.273,1.95,1.941,4.192,1.941,6.549C393.128,148.21,387.723,153.616,381.079,153.616z"/>
	</g>
	<g>
		<g>
			<path style="fill:#F9AB43;" d="M458.281,218.401c-1.025-1.245-2.021-2.153-2.772-2.802c-0.966-0.85-1.934-1.55-2.757-2.125
				c-1.774-1.201-3.624-2.192-5.498-2.945c-3.478-1.406-7.171-2.119-11.006-2.119c-3.881,0.018-7.477,0.719-10.993,2.145
				c-1.886,0.76-3.74,1.752-5.511,2.951c-0.807,0.56-1.763,1.248-2.737,2.099c-0.758,0.653-1.758,1.56-2.779,2.793l-0.639,0.772
				l0.639,0.772c1.021,1.233,2.019,2.137,2.772,2.786c0.982,0.859,1.942,1.549,2.755,2.114c1.763,1.193,3.612,2.182,5.497,2.941
				c3.518,1.426,7.116,2.128,11.001,2.146h0.03c3.801,0,7.492-0.713,10.969-2.118c1.878-0.754,3.732-1.748,5.516-2.957
				c0.814-0.569,1.776-1.265,2.735-2.108c0.755-0.654,1.754-1.563,2.779-2.808l0.633-0.77L458.281,218.401z M453.91,220.957
				c-0.878,0.768-1.767,1.407-2.516,1.929c-1.631,1.099-3.33,2.005-5.048,2.692c-3.234,1.3-6.525,1.933-10.087,1.933
				c-3.568-0.016-6.871-0.657-10.1-1.96c-1.727-0.692-3.422-1.595-5.036-2.68c-0.751-0.519-1.639-1.154-2.537-1.935
				c-0.496-0.425-1.139-0.996-1.816-1.722c0.68-0.729,1.325-1.301,1.823-1.728c0.89-0.774,1.774-1.406,2.518-1.921
				c1.621-1.091,3.32-1.996,5.05-2.69c3.228-1.302,6.529-1.943,10.122-1.959c3.537,0,6.829,0.632,10.065,1.933
				c1.717,0.686,3.411,1.589,5.031,2.681c0.758,0.527,1.652,1.17,2.538,1.945c0.496,0.426,1.139,1.001,1.823,1.738
				C455.057,219.95,454.41,220.526,453.91,220.957z"/>
			<path style="fill:#F9AB43;" d="M443.015,217.683l-1.221,0.678c-0.461,0.256-0.984,0.392-1.513,0.392
				c-1.721,0-3.122-1.401-3.122-3.122c0-0.668,0.212-1.307,0.612-1.849l0.832-1.127l-1.387-0.197
				c-0.36-0.051-0.666-0.075-0.963-0.075c-3.742,0-6.787,3.045-6.787,6.788s3.045,6.787,6.787,6.787
				c3.743,0,6.787-3.045,6.787-6.787c0-0.034-0.002-0.068-0.004-0.091L443.015,217.683z"/>
		</g>
		<g>
			
				<rect x="416.958" y="218.261" transform="matrix(0.7071 -0.7071 0.7071 0.7071 -27.2018 372.6696)" style="fill:#EB725F;" width="38.587" height="1.818"/>
		</g>
	</g>
	<g>
		<path style="fill:#6E7FDD;" d="M104.661,166.499c-0.946,0-1.815,0.178-2.507,0.473c-0.275-1.679-0.932-3.225-1.885-4.55
			c0.7-0.28,1.44-0.76,2.111-1.431c1.595-1.594,2.18-3.594,1.309-4.465c-0.872-0.872-2.871-0.286-4.465,1.309
			c-0.671,0.671-1.15,1.411-1.431,2.111c-1.325-0.953-2.871-1.61-4.55-1.885c0.295-0.692,0.473-1.561,0.473-2.507
			c0-2.255-0.999-4.083-2.232-4.083c-1.233,0-2.232,1.828-2.232,4.083c0,0.946,0.178,1.815,0.473,2.507
			c-1.679,0.275-3.225,0.932-4.55,1.885c-0.28-0.7-0.76-1.44-1.431-2.111c-1.594-1.594-3.594-2.18-4.465-1.309
			c-0.872,0.872-0.286,2.871,1.309,4.465c0.671,0.671,1.411,1.15,2.111,1.431c-0.953,1.325-1.61,2.871-1.885,4.55
			c-0.692-0.295-1.561-0.473-2.507-0.473c-2.255,0-4.083,0.999-4.083,2.232c0,1.233,1.828,2.232,4.083,2.232
			c0.946,0,1.815-0.178,2.507-0.473c0.275,1.679,0.932,3.225,1.885,4.55c-0.7,0.28-1.44,0.76-2.111,1.431
			c-1.595,1.594-2.18,3.594-1.309,4.466c0.872,0.872,2.871,0.286,4.465-1.309c0.671-0.671,1.15-1.411,1.431-2.111
			c1.325,0.953,2.871,1.61,4.55,1.885c-0.295,0.692-0.473,1.561-0.473,2.507c0,2.255,0.999,4.083,2.232,4.083
			c1.233,0,2.232-1.828,2.232-4.083c0-0.946-0.178-1.815-0.473-2.507c1.679-0.275,3.225-0.932,4.55-1.885
			c0.28,0.7,0.76,1.44,1.431,2.111c1.594,1.595,3.594,2.18,4.465,1.309c0.872-0.872,0.286-2.871-1.309-4.466
			c-0.671-0.671-1.411-1.15-2.111-1.431c0.953-1.325,1.61-2.871,1.885-4.55c0.692,0.295,1.561,0.473,2.507,0.473
			c2.255,0,4.083-0.999,4.083-2.232C108.744,167.498,106.916,166.499,104.661,166.499z M91.483,175.848
			c-3.93,0-7.117-3.186-7.117-7.117c0-3.93,3.186-7.117,7.117-7.117c3.931,0,7.117,3.186,7.117,7.117
			C98.6,172.662,95.413,175.848,91.483,175.848z"/>
		<path style="fill:#6E7FDD;" d="M139.994,142.47c-1.275-0.513-2.541-0.745-3.634-0.722c0.539-2.41,0.493-4.85-0.073-7.151
			c1.095,0.002,2.352-0.243,3.619-0.783c3.012-1.283,4.885-3.659,4.183-5.306c-0.702-1.647-3.712-1.941-6.724-0.658
			c-1.268,0.54-2.314,1.277-3.071,2.068c-1.268-2.002-2.995-3.725-5.107-5.005c0.773-0.772,1.483-1.846,1.996-3.121
			c1.222-3.037,0.867-6.041-0.794-6.71c-1.661-0.668-3.998,1.252-5.22,4.29c-0.513,1.275-0.744,2.541-0.722,3.634
			c-2.41-0.54-4.85-0.493-7.151,0.073c0.002-1.095-0.243-2.352-0.783-3.619c-1.284-3.012-3.659-4.885-5.306-4.183
			c-1.647,0.702-1.941,3.712-0.658,6.724c0.54,1.268,1.277,2.314,2.068,3.071c-2.002,1.268-3.725,2.995-5.005,5.107
			c-0.772-0.773-1.846-1.483-3.121-1.996c-3.037-1.222-6.042-0.867-6.71,0.794c-0.668,1.661,1.252,3.998,4.29,5.22
			c1.275,0.513,2.541,0.745,3.634,0.722c-0.539,2.41-0.493,4.85,0.073,7.151c-1.095-0.002-2.352,0.243-3.619,0.783
			c-3.012,1.283-4.885,3.659-4.183,5.306c0.702,1.647,3.712,1.941,6.725,0.658c1.268-0.54,2.314-1.277,3.071-2.068
			c1.268,2.002,2.995,3.725,5.107,5.005c-0.773,0.773-1.483,1.846-1.996,3.121c-1.222,3.038-0.867,6.042,0.794,6.71
			c1.661,0.668,3.998-1.252,5.22-4.29c0.513-1.275,0.745-2.541,0.722-3.634c2.41,0.54,4.849,0.493,7.15-0.073
			c-0.002,1.095,0.243,2.352,0.783,3.619c1.284,3.012,3.659,4.885,5.306,4.183c1.647-0.702,1.941-3.712,0.658-6.725
			c-0.54-1.268-1.277-2.314-2.068-3.071c2.002-1.268,3.725-2.995,5.005-5.107c0.772,0.773,1.846,1.483,3.121,1.996
			c3.037,1.222,6.042,0.867,6.71-0.794C144.952,146.029,143.032,143.692,139.994,142.47z M117.176,147.92
			c-5.295-2.13-7.859-8.15-5.729-13.444c2.131-5.295,8.15-7.859,13.444-5.729c5.294,2.13,7.859,8.15,5.729,13.444
			C128.49,147.486,122.47,150.051,117.176,147.92z"/>
	</g>
	<path style="fill:#EEF1FF;" d="M338.77,172.561c0,1.14-0.924,2.065-2.065,2.065c-1.14,0-2.064-0.924-2.064-2.065
		s0.924-2.064,2.064-2.064C337.846,170.497,338.77,171.421,338.77,172.561z"/>
	<g>
		<path style="fill:#FFCF74;" d="M300.713,391.635c-0.883,1.352-0.894,2.136-0.848,2.273c0.074,0.085,0.737,0.505,2.352,0.505
			h80.778c1.614,0,2.277-0.42,2.366-0.531c0.031-0.109,0.019-0.894-0.863-2.246l-39.344-60.28c-0.79-1.211-1.743-1.934-2.548-1.934
			c-0.805,0-1.758,0.723-2.548,1.934L300.713,391.635z"/>
		<g>
			<g>
				<path style="fill:#EB725F;" d="M382.994,402.955h-80.778c-4.555,0-8.152-1.82-9.871-4.993c-1.718-3.173-1.276-7.18,1.213-10.994
					v-0.001l39.345-60.279c2.409-3.69,5.945-5.807,9.701-5.807c3.756,0,7.292,2.117,9.7,5.806l39.346,60.281
					c2.489,3.814,2.931,7.821,1.213,10.994C391.146,401.135,387.549,402.955,382.994,402.955z M300.713,391.635
					c-0.883,1.352-0.894,2.136-0.848,2.273c0.074,0.085,0.737,0.505,2.352,0.505h80.778c1.614,0,2.277-0.42,2.366-0.531
					c0.031-0.109,0.019-0.894-0.863-2.246l-39.344-60.28c-0.79-1.211-1.743-1.934-2.548-1.934c-0.805,0-1.758,0.723-2.548,1.934
					L300.713,391.635z"/>
			</g>
			<g>
				<path style="fill:#EB725F;" d="M340.13,386.61c-0.651-0.652-0.977-1.458-0.977-2.417c0-0.959,0.326-1.764,0.977-2.416
					c0.653-0.652,1.458-0.979,2.417-0.979c0.959,0,1.774,0.327,2.447,0.979c0.669,0.652,1.007,1.458,1.007,2.416
					c0,0.959-0.337,1.765-1.007,2.417c-0.673,0.652-1.487,0.978-2.447,0.978C341.588,387.588,340.783,387.262,340.13,386.61z
					 M338.117,346.501h8.977l-1.668,28.715h-5.641L338.117,346.501z"/>
			</g>
		</g>
	</g>
</g>
<g id="TEXTS">
	
		<text transform="matrix(1 0 0 1 369.8564 275.1748)" style="fill:#FFFFFF; font-family:'Prompt-Black'; font-size:12.3686px; letter-spacing:1;">NO DATA</text>
</g>
</svg>
