<?xml version="1.0" encoding="utf-8"?>
<!-- Generator: Adobe Illustrator 27.5.0, SVG Export Plug-In . SVG Version: 6.00 Build 0)  -->
<svg version="1.1" xmlns="http://www.w3.org/2000/svg" xmlns:xlink="http://www.w3.org/1999/xlink" x="0px" y="0px"
	 viewBox="0 0 500 500" style="enable-background:new 0 0 500 500;" xml:space="preserve">
<g id="BACKGROUND">
	<rect id="Rectangle" style="fill:#FFFFFF;" width="500" height="500"/>
</g>
<g id="OBJECTS">
	<g>
		<path id="_x3C_Path_x3E__00000008829713681290183870000009156410208051956134_" style="fill:#F5F8FF;" d="M188.623,379.789
			c-33.317,19.361-110.818,26.275-119.944-35.195c-11.858-79.87,59.497-79.566,50.714-143.261
			c-8.783-63.696,55.594-142.917,117.411-88.69c61.817,54.227,70.439,45.765,108.239,34.167
			c37.8-11.598,89.006,39.731,55.694,92.545s19.953,136.78-65.951,165.912C234.088,439.416,253.292,342.21,188.623,379.789z"/>
		<g>
			<path style="fill:#E1ECFA;" d="M429.611,275.277l-3.161-0.57c-1.578-0.284-2.828-1.549-3.009-3.142
				c-0.24-2.113-0.71-4.172-1.385-6.148c-0.528-1.542,0.069-3.245,1.407-4.175l2.886-2.004c1.678-1.166,2.094-3.471,0.928-5.149
				l-2.506-3.608c-1.166-1.678-3.471-2.094-5.149-0.928l-3.054,2.121c-1.331,0.924-3.125,0.93-4.408-0.061
				c-1.75-1.35-3.665-2.513-5.72-3.45c-1.511-0.689-2.326-2.352-2.031-3.987l0.503-2.792c0.362-2.011-0.974-3.935-2.985-4.297
				l-4.323-0.779c-2.011-0.363-3.935,0.973-4.297,2.984l-0.648,3.597c-0.283,1.572-1.548,2.749-3.124,3.006
				c-1.795,0.293-3.545,0.752-5.232,1.362c-1.486,0.537-3.146,0.14-4.163-1.068l-3.163-3.758c-1.316-1.563-3.649-1.764-5.213-0.448
				l-3.36,2.829c-1.563,1.316-1.764,3.65-0.448,5.213l2.46,2.923c1.091,1.296,1.174,3.176,0.169,4.54
				c-0.946,1.283-1.792,2.65-2.526,4.092c-0.727,1.43-2.339,2.18-3.917,1.896l-3.162-0.57c-2.011-0.363-3.935,0.974-4.297,2.984
				l-0.779,4.323c-0.362,2.011,0.974,3.935,2.985,4.297l3.141,0.566c1.588,0.286,2.848,1.556,3.032,3.159
				c0.139,1.209,0.354,2.4,0.638,3.569c0.407,1.669-0.424,3.391-1.964,4.15l-2.33,1.148c-1.833,0.903-2.586,3.121-1.683,4.954
				l1.942,3.94c0.903,1.833,3.121,2.586,4.954,1.683l3.599-1.773c1.395-0.688,3.049-0.405,4.194,0.647
				c1.603,1.471,3.376,2.772,5.296,3.867c1.386,0.79,2.162,2.333,1.879,3.903l-0.649,3.601c-0.362,2.011,0.974,3.935,2.984,4.297
				l4.323,0.779c2.011,0.362,3.935-0.974,4.297-2.985l0.503-2.793c0.295-1.635,1.64-2.909,3.297-3.027
				c2.241-0.16,4.43-0.577,6.53-1.225c1.543-0.476,3.216,0.153,4.137,1.48l2.158,3.106c1.165,1.678,3.471,2.094,5.149,0.928
				l3.608-2.506c1.678-1.166,2.094-3.471,0.928-5.149l-2.022-2.912c-0.93-1.34-0.894-3.147,0.142-4.407
				c1.334-1.624,2.502-3.4,3.471-5.308c0.726-1.43,2.34-2.177,3.918-1.892l3.159,0.569c2.011,0.362,3.935-0.974,4.297-2.985
				l0.779-4.323C432.958,277.564,431.621,275.64,429.611,275.277z M410.076,277.508c-1.576,8.741-9.939,14.55-18.679,12.974
				c-8.741-1.576-14.549-9.939-12.974-18.68c1.576-8.741,9.939-14.549,18.679-12.974
				C405.843,260.404,411.651,268.767,410.076,277.508z"/>
			<path style="fill:#E1ECFA;" d="M181.115,146.407l-3.866-0.005c-1.93-0.003-3.679-1.236-4.231-3.084
				c-0.733-2.452-1.725-4.793-2.945-6.99c-0.952-1.715-0.606-3.86,0.783-5.245l2.995-2.987c1.741-1.737,1.745-4.556,0.008-6.297
				l-3.733-3.743c-1.737-1.741-4.556-1.745-6.297-0.008l-3.169,3.161c-1.381,1.377-3.505,1.763-5.235,0.862
				c-2.359-1.229-4.874-2.201-7.508-2.875c-1.936-0.496-3.254-2.294-3.251-4.293l0.005-3.415c0.003-2.459-1.988-4.455-4.447-4.459
				l-5.287-0.007c-2.459-0.003-4.455,1.987-4.459,4.447l-0.006,4.399c-0.003,1.922-1.252,3.585-3.065,4.224
				c-2.065,0.728-4.041,1.642-5.91,2.723c-1.646,0.951-3.698,0.833-5.159-0.383l-4.544-3.782c-1.89-1.573-4.698-1.316-6.271,0.574
				l-3.382,4.063c-1.573,1.89-1.316,4.698,0.574,6.271l3.535,2.942c1.567,1.305,2.064,3.515,1.162,5.343
				c-0.849,1.72-1.562,3.519-2.125,5.383c-0.558,1.848-2.309,3.079-4.24,3.076l-3.867-0.005c-2.459-0.003-4.456,1.988-4.459,4.447
				l-0.007,5.287c-0.003,2.459,1.988,4.455,4.447,4.459l3.841,0.005c1.942,0.003,3.704,1.241,4.262,3.1
				c0.421,1.403,0.928,2.769,1.512,4.093c0.836,1.891,0.216,4.107-1.448,5.333l-2.517,1.854c-1.98,1.458-2.403,4.246-0.944,6.226
				l3.136,4.256c1.458,1.98,4.246,2.403,6.226,0.944l3.888-2.864c1.507-1.111,3.526-1.126,5.107-0.122
				c2.211,1.404,4.587,2.569,7.095,3.459c1.81,0.642,3.056,2.306,3.053,4.226l-0.006,4.404c-0.003,2.459,1.987,4.456,4.447,4.459
				l5.287,0.007c2.459,0.003,4.456-1.988,4.459-4.447l0.005-3.415c0.003-2,1.327-3.794,3.265-4.285
				c2.622-0.664,5.126-1.622,7.477-2.836c1.727-0.891,3.843-0.5,5.215,0.876l3.215,3.223c1.736,1.741,4.556,1.745,6.297,0.008
				l3.743-3.733c1.741-1.737,1.745-4.556,0.008-6.297l-3.013-3.021c-1.386-1.39-1.726-3.539-0.766-5.252
				c1.236-2.206,2.243-4.558,2.988-7.025c0.558-1.848,2.311-3.075,4.242-3.073l3.864,0.005c2.459,0.003,4.455-1.988,4.459-4.447
				l0.007-5.287C185.565,148.407,183.574,146.41,181.115,146.407z M158.443,153.19c-0.014,10.69-8.692,19.345-19.382,19.33
				c-10.69-0.014-19.344-8.692-19.33-19.382c0.014-10.69,8.692-19.344,19.382-19.33C149.803,133.822,158.457,142.5,158.443,153.19z"
				/>
			<path style="fill:#E1ECFA;" d="M246.178,105.714l-2.145,0.266c-1.071,0.133-2.127-0.43-2.562-1.417
				c-0.577-1.31-1.291-2.539-2.12-3.673c-0.647-0.885-0.605-2.099,0.069-2.964l1.454-1.865c0.845-1.085,0.651-2.649-0.434-3.494
				l-2.332-1.817c-1.085-0.845-2.649-0.651-3.494,0.434l-1.538,1.974c-0.67,0.86-1.822,1.222-2.844,0.843
				c-1.395-0.518-2.857-0.882-4.366-1.073c-1.109-0.14-1.965-1.046-2.103-2.156l-0.235-1.895c-0.169-1.365-1.413-2.334-2.777-2.164
				l-2.934,0.364c-1.365,0.169-2.334,1.413-2.164,2.777l0.303,2.441c0.132,1.066-0.445,2.076-1.406,2.557
				c-1.095,0.547-2.128,1.192-3.09,1.922c-0.847,0.642-1.993,0.719-2.889,0.146l-2.784-1.782c-1.158-0.741-2.698-0.403-3.439,0.755
				l-1.594,2.49c-0.741,1.158-0.403,2.698,0.755,3.439l2.166,1.386c0.96,0.615,1.39,1.806,1.017,2.884
				c-0.351,1.013-0.622,2.061-0.804,3.135c-0.181,1.064-1.067,1.869-2.138,2.002l-2.146,0.266c-1.365,0.169-2.334,1.413-2.164,2.777
				l0.364,2.934c0.169,1.365,1.413,2.334,2.777,2.164l2.131-0.264c1.078-0.134,2.141,0.431,2.581,1.424
				c0.331,0.749,0.707,1.472,1.124,2.165c0.595,0.991,0.406,2.264-0.432,3.06l-1.268,1.204c-0.997,0.947-1.038,2.523-0.091,3.52
				l2.036,2.143c0.947,0.997,2.523,1.038,3.52,0.091l1.958-1.859c0.759-0.721,1.878-0.87,2.825-0.423
				c1.324,0.625,2.724,1.106,4.177,1.426c1.049,0.23,1.856,1.067,1.988,2.132l0.303,2.444c0.169,1.365,1.413,2.334,2.777,2.164
				l2.934-0.364c1.365-0.169,2.334-1.413,2.164-2.777l-0.235-1.895c-0.138-1.109,0.472-2.197,1.513-2.604
				c1.408-0.551,2.731-1.257,3.951-2.094c0.896-0.615,2.097-0.545,2.955,0.123l2.008,1.565c1.085,0.845,2.649,0.651,3.494-0.434
				l1.817-2.332c0.845-1.085,0.651-2.649-0.434-3.494l-1.882-1.467c-0.866-0.675-1.204-1.843-0.791-2.86
				c0.532-1.31,0.927-2.685,1.169-4.105c0.181-1.064,1.068-1.867,2.139-2l2.144-0.266c1.365-0.169,2.334-1.413,2.164-2.777
				l-0.364-2.934C248.786,106.514,247.542,105.545,246.178,105.714z M234.071,111.055c0.736,5.932-3.476,11.338-9.408,12.074
				c-5.932,0.736-11.337-3.476-12.073-9.408c-0.736-5.932,3.476-11.337,9.408-12.073
				C227.93,100.911,233.335,105.123,234.071,111.055z"/>
		</g>
		<g>
			<g id="Leaf_00000168833980269233225490000015725517016143714990_">
				<path id="Leaf_Part_00000054252242325688773290000013974130399234798776_" style="fill:#E1ECFA;" d="M284.166,381.605
					c0.454-2.443,0.039-4.845-0.554-6.746c-0.611-1.961-2.983-2.771-4.675-1.608c-2.417,1.66-5.468,3.213-5.705,0.674
					c-0.395-4.248,8.456-3.079,8.084-9.306c-0.187-3.136-1.588-6.234-2.595-8.09c-0.594-1.095-1.777-1.737-3.017-1.614
					c-2.247,0.223-5.943,0.833-8.561,2.497c-5.266,3.345-0.681,10.856-4.38,12.982c-2.092,1.202-2.416-2.679-2.303-6.28
					c0.078-2.498-2.69-4.078-4.78-2.707c-0.752,0.493-1.56,1.069-2.405,1.736c-4.327,3.417,2.518,11.699-0.043,14.763
					c-1.499,1.793-3.355-2.272-4.637-5.953c-0.9-2.584-4.479-2.878-5.7-0.43c-0.585,1.173-1.058,2.599-1.264,4.308
					c-0.786,6.508,6.95,8.405,3.156,9.925c-1.106,0.443-2.157,0.06-3.09-0.704c-1.97-1.615-4.929-0.08-4.969,2.467
					c-0.137,8.579,1.67,20.798,8.535,25.154c0.951,0.604,12.142-0.47,13.033-0.288c7.869,1.603,13.826-2.089,17.64-5.924
					c1.894-1.904,0.653-5.147-2.028-5.296c-2.896-0.161-5.792-0.811-6.245-2.716c-0.944-3.976,8.159,1.923,13.025-2.47
					c1.587-1.433,2.58-2.95,3.197-4.344c1.01-2.281-0.94-4.746-3.398-4.316c-3.992,0.698-9.201,1.177-8.558-1.237
					C272.957,382.22,283.16,387.026,284.166,381.605z"/>
				<path id="Leaf_Part_00000074433649706334362000000008403740816689415585_" style="fill:#E1ECFA;" d="M250.975,405.638
					c0,0,6.586-20.156,23.96-45.185"/>
			</g>
			<g id="Leaf_00000090995173413144286100000015961223840034953912_">
				<path id="Leaf_Part_00000101074445937619520480000005576219103218935733_" style="fill:#E1ECFA;" d="M223.746,371.255
					c-1.488-0.741-3.085-1.024-4.512-1.084c-2.123-0.09-3.736,1.931-3.122,3.965c0.649,2.147,0.931,4.424-0.958,4.069
					c-3.468-0.651-0.527-7.424-5.564-8.543c-2.341-0.52-4.892-0.211-6.611,0.138c-1.26,0.256-2.24,1.25-2.45,2.519
					c-0.308,1.862-0.568,4.686,0.11,6.976c1.464,4.948,8.479,3.008,9.328,6.433c0.427,1.722-2.025,1.419-4.569,0.693
					c-2.45-0.7-4.671,1.634-3.806,4.031c0.137,0.378,0.287,0.77,0.453,1.174c1.735,4.217,9.875,0.655,11.73,3.388
					c0.935,1.378-1.647,1.978-4.438,2.236c-2.966,0.273-3.945,4.164-1.406,5.721c0.468,0.287,0.986,0.556,1.558,0.797
					c4.997,2.103,8.263-3.617,8.61-0.255c0.086,0.832-0.292,1.496-0.908,2.025c-1.8,1.545-1.094,4.495,1.161,5.23
					c5.923,1.93,14.134,3.449,20.159,1.902c3.487-0.896,5.87-3.094,7.071-4.611c4.268-5.395,0.209-16.271-3.488-23.221
					c-1.212-2.279-4.559-2.191-5.572,0.183c-0.762,1.786-1.796,3.245-3.132,3.185c-3.376-0.152,3.383-6.052,0.995-10.919
					c-0.361-0.735-0.749-1.373-1.148-1.927c-1.569-2.177-5.001-1.338-5.518,1.296c-0.601,3.064-1.625,6.285-3.194,5.348
					C221.688,380.309,227.828,373.287,223.746,371.255z"/>
				<path id="Leaf_Part" style="fill:#E1ECFA;" d="M235.318,403.11c0,0-14.533-9.816-30.49-29.319"/>
			</g>
			<g id="Leaf_00000103949217045596084060000010688870433229599635_">
				<path id="Leaf_Part_00000127009088535260287330000011569285478763721363_" style="fill:#E1ECFA;" d="M408.343,385.624
					c0.331-1.782,0.125-3.539-0.256-5.03c-0.533-2.083-2.938-2.997-4.742-1.827c-1.979,1.284-4.224,2.261-4.411,0.247
					c-0.34-3.656,7.277-2.65,6.957-8.009c-0.151-2.53-1.22-5.032-2.067-6.651c-0.596-1.14-1.815-1.809-3.094-1.666
					c-1.951,0.218-4.907,0.761-7.036,2.114c-4.532,2.879-0.586,9.343-3.77,11.172c-1.649,0.947-2.022-1.776-1.998-4.622
					c0.021-2.548-2.842-4.022-4.922-2.55c-0.402,0.285-0.819,0.595-1.246,0.932c-3.724,2.941,2.167,10.068-0.037,12.705
					c-1.159,1.387-2.567-1.298-3.641-4.156c-1.012-2.693-4.905-2.698-5.82,0.03c-0.235,0.7-0.418,1.479-0.522,2.341
					c-0.676,5.601,5.981,7.233,2.716,8.541c-0.786,0.315-1.539,0.146-2.229-0.293c-2.039-1.296-4.716,0.233-4.712,2.649
					c0.011,7.319,1.664,17.199,7.351,20.808c0.819,0.52,10.449-0.404,11.216-0.248c6.285,1.28,11.152-1.365,14.444-4.389
					c1.964-1.805,0.773-5.068-1.882-5.333c-2.174-0.217-4.158-0.823-4.501-2.27c-0.813-3.422,7.022,1.655,11.209-2.126
					c0.964-0.87,1.673-1.776,2.193-2.655c1.338-2.261-0.534-5.08-3.129-4.67c-3.297,0.52-7.115,0.735-6.602-1.191
					C398.697,386.153,407.477,390.289,408.343,385.624z"/>
				<path id="Leaf_Part_00000095340113819928993640000013743213094321108395_" style="fill:#E1ECFA;" d="M379.779,406.306
					c0,0,5.668-17.346,20.62-38.885"/>
			</g>
		</g>
	</g>
	<g>
		<path style="fill:#315782;" d="M383.759,359.948H98.583c-7.389,0-13.38-5.99-13.38-13.38V184.152c0-7.39,5.99-13.38,13.38-13.38
			h285.176c7.389,0,13.38,5.99,13.38,13.38v162.416C397.139,353.958,391.149,359.948,383.759,359.948z"/>
		<path style="fill:#FFFFFF;" d="M377.786,348.486H104.556c-4.275,0-7.74-3.465-7.74-7.74V189.975c0-4.274,3.465-7.74,7.74-7.74
			h273.229c4.275,0,7.74,3.465,7.74,7.74v150.771C385.525,345.02,382.06,348.486,377.786,348.486z"/>
		
			<line style="fill:none;stroke:#E1ECFA;stroke-linecap:round;stroke-miterlimit:10;" x1="107.739" y1="217.042" x2="375.323" y2="217.042"/>
		
			<line style="fill:none;stroke:#E1ECFA;stroke-linecap:round;stroke-miterlimit:10;" x1="241.083" y1="189.107" x2="241.083" y2="339.927"/>
		
			<line style="fill:none;stroke:#E1ECFA;stroke-linecap:round;stroke-miterlimit:10;" x1="311.253" y1="189.107" x2="311.253" y2="339.927"/>
		<path style="fill:#E1ECFA;" d="M155.705,204.75h-41.103c-1.593,0-2.885-1.292-2.885-2.885v-1.94c0-1.594,1.292-2.885,2.885-2.885
			h41.103c1.593,0,2.885,1.292,2.885,2.885v1.94C158.59,203.458,157.299,204.75,155.705,204.75z"/>
		<path style="fill:#E1ECFA;" d="M225.349,204.75h-41.103c-1.593,0-2.885-1.292-2.885-2.885v-1.94c0-1.594,1.292-2.885,2.885-2.885
			h41.103c1.593,0,2.885,1.292,2.885,2.885v1.94C228.234,203.458,226.943,204.75,225.349,204.75z"/>
		<path style="fill:#E1ECFA;" d="M296.661,204.75h-41.103c-1.593,0-2.885-1.292-2.885-2.885v-1.94c0-1.594,1.292-2.885,2.885-2.885
			h41.103c1.593,0,2.885,1.292,2.885,2.885v1.94C299.546,203.458,298.254,204.75,296.661,204.75z"/>
		<path style="fill:#E1ECFA;" d="M365.929,204.75h-41.103c-1.593,0-2.885-1.292-2.885-2.885v-1.94c0-1.594,1.292-2.885,2.885-2.885
			h41.103c1.594,0,2.885,1.292,2.885,2.885v1.94C368.815,203.458,367.523,204.75,365.929,204.75z"/>
		<path style="fill:#F0C66C;" d="M150.463,256.719h-22.651c-1.307,0-2.366-1.059-2.366-2.366v-22.651
			c0-1.307,1.059-2.366,2.366-2.366h22.651c1.307,0,2.366,1.059,2.366,2.366v22.651C152.829,255.66,151.77,256.719,150.463,256.719z
			"/>
		<path style="fill:#F0C66C;" d="M143.397,297.057h-23.828c-1.307,0-2.366-1.059-2.366-2.366v-23.828
			c0-1.307,1.059-2.366,2.366-2.366h23.828c1.307,0,2.366,1.059,2.366,2.366v23.828
			C145.763,295.997,144.703,297.057,143.397,297.057z"/>
		<path style="fill:#E69724;" d="M149.803,333.29l-22.143,3.08c-1.294,0.18-2.489-0.723-2.669-2.017l-3.08-22.143
			c-0.18-1.294,0.723-2.489,2.017-2.669l22.143-3.08c1.294-0.18,2.489,0.723,2.669,2.017l3.08,22.143
			C152,331.915,151.097,333.11,149.803,333.29z"/>
		<path style="fill:#F0C66C;" d="M217.881,334.117l-28.146-2.173c-1.303-0.101-2.277-1.238-2.177-2.541l2.173-28.146
			c0.101-1.303,1.238-2.277,2.541-2.177l28.146,2.173c1.303,0.101,2.277,1.238,2.177,2.541l-2.173,28.146
			C220.321,333.243,219.183,334.218,217.881,334.117z"/>
		<path style="fill:#E69724;" d="M268.7,256.263l29.767,2.298c1.303,0.1,2.277,1.238,2.177,2.541l-2.298,29.768
			c-0.101,1.303-1.238,2.277-2.541,2.177l-29.767-2.298c-1.303-0.101-2.277-1.238-2.177-2.541l2.298-29.768
			C266.259,257.137,267.397,256.163,268.7,256.263z"/>
		<path style="fill:#F0C66C;" d="M292.985,327.256l-23.821,3.314c-1.294,0.18-2.489-0.723-2.669-2.017l-2.799-20.12
			c-0.18-1.294,0.723-2.489,2.017-2.669l23.821-3.314c1.294-0.18,2.489,0.723,2.669,2.017l2.799,20.12
			C295.183,325.881,294.28,327.076,292.985,327.256z"/>
		<path style="fill:#F0C66C;" d="M215.353,293.771h-21.112c-1.307,0-2.366-1.059-2.366-2.366v-21.112
			c0-1.307,1.059-2.366,2.366-2.366h21.112c1.307,0,2.366,1.059,2.366,2.366v21.112C217.719,292.712,216.66,293.771,215.353,293.771
			z"/>
		<path style="fill:#F0C66C;" d="M342.519,252.562h-18.212c-1.307,0-2.366-1.059-2.366-2.366v-18.212
			c0-1.307,1.059-2.366,2.366-2.366h18.212c1.307,0,2.366,1.059,2.366,2.366v18.212
			C344.885,251.503,343.826,252.562,342.519,252.562z"/>
		<path style="fill:#F0C66C;" d="M377.127,258.031l-21.189,2.948c-1.294,0.18-2.489-0.723-2.669-2.017l-2.948-21.189
			c-0.18-1.294,0.723-2.489,2.017-2.669l21.189-2.947c1.294-0.18,2.489,0.723,2.669,2.017l2.947,21.189
			C379.325,256.656,378.421,257.851,377.127,258.031z"/>
		<path style="fill:#F0C66C;" d="M367.357,301.802l-29.089,4.046c-1.294,0.18-2.489-0.723-2.669-2.017l-4.046-29.089
			c-0.18-1.294,0.723-2.489,2.017-2.669l29.089-4.046c1.294-0.18,2.489,0.723,2.669,2.017l4.046,29.089
			C369.554,300.426,368.651,301.621,367.357,301.802z"/>
		<path style="fill:#E69724;" d="M355.668,341.41l-20.15-4.228c-1.279-0.268-2.098-1.523-1.829-2.801l4.228-20.15
			c0.268-1.279,1.522-2.098,2.801-1.83l20.15,4.228c1.279,0.268,2.098,1.522,1.83,2.801l-4.228,20.15
			C358.201,340.859,356.947,341.678,355.668,341.41z"/>
		<g>
			<path id="Board_3_Part_00000150069428567350656110000013511770153200671632_" style="fill:#FFFFFF;" d="M349.338,299.365
				L349.338,299.365c0.869-0.121,1.475-0.923,1.355-1.792l-2.817-20.248c-0.121-0.869-0.923-1.475-1.792-1.354l0,0
				c-0.869,0.121-1.475,0.923-1.355,1.792l2.817,20.248C347.667,298.879,348.469,299.486,349.338,299.365z"/>
			<path id="Board_3_Part_00000037675875177674199400000004618275548521418400_" style="fill:#FFFFFF;" d="M343.607,300.162
				L343.607,300.162c0.869-0.121,1.476-0.923,1.355-1.792l-2.122-15.257c-0.121-0.869-0.923-1.475-1.792-1.355l0,0
				c-0.869,0.121-1.475,0.923-1.355,1.792l2.122,15.257C341.936,299.677,342.738,300.283,343.607,300.162z"/>
			<path id="Board_3_Part_00000153705458831983232680000014838904449081735064_" style="fill:#FFFFFF;" d="M360.193,297.855
				L360.193,297.855c0.869-0.121,1.475-0.923,1.355-1.792l-2.449-17.606c-0.121-0.869-0.923-1.475-1.792-1.355l0,0
				c-0.869,0.121-1.475,0.923-1.355,1.792l2.449,17.606C358.522,297.37,359.324,297.976,360.193,297.855z"/>
			<path id="Board_3_Part_00000029729793462926615040000015392226534797088687_" style="fill:#FFFFFF;" d="M354.766,298.61
				L354.766,298.61c0.869-0.121,1.475-0.923,1.354-1.792l-1.609-11.57c-0.121-0.869-0.923-1.475-1.792-1.355l0,0
				c-0.869,0.121-1.475,0.923-1.355,1.792l1.609,11.57C353.094,298.125,353.897,298.731,354.766,298.61z"/>
		</g>
		<path style="fill:#F0C66C;" d="M278.92,261.736l-21.925,3.05c-1.294,0.18-2.489-0.723-2.669-2.017l-3.05-21.925
			c-0.18-1.294,0.723-2.489,2.017-2.669l21.925-3.05c1.294-0.18,2.489,0.723,2.669,2.017l3.05,21.925
			C281.118,260.361,280.214,261.556,278.92,261.736z"/>
		<g>
			<path style="fill:#FFFFFF;" d="M278.811,282.89l-5.649-5.607c-0.601-0.596-0.692-1.581-0.127-2.212
				c0.603-0.674,1.638-0.699,2.271-0.07l4.489,4.455l9.317-10.976c0.578-0.681,1.611-0.744,2.269-0.124
				c0.616,0.581,0.61,1.57,0.062,2.216l-10.374,12.222C280.487,283.477,279.447,283.521,278.811,282.89z"/>
		</g>
		<g>
			<path style="fill:#FFFFFF;" d="M200.361,323.282l-5.933-5.888c-0.631-0.626-0.727-1.66-0.134-2.323
				c0.633-0.707,1.72-0.734,2.385-0.073l4.714,4.679l9.784-11.527c0.607-0.715,1.692-0.782,2.383-0.131
				c0.647,0.61,0.64,1.649,0.064,2.327l-10.895,12.835C202.121,323.899,201.029,323.945,200.361,323.282z"/>
		</g>
		<path style="fill:#FFFFFF;" d="M133.731,237.073l4.919,4.754l4.754-4.919c0.483-0.5,1.28-0.513,1.78-0.03
			c0.5,0.483,0.513,1.28,0.03,1.78l-4.754,4.919l4.919,4.754c0.5,0.483,0.513,1.28,0.03,1.78c-0.483,0.5-1.28,0.513-1.78,0.03
			l-4.919-4.754l-4.754,4.919c-0.483,0.5-1.28,0.513-1.78,0.03c-0.5-0.483-0.514-1.28-0.03-1.78l4.754-4.919l-4.919-4.754
			c-0.5-0.483-0.513-1.28-0.03-1.78C132.435,236.603,133.231,236.589,133.731,237.073z"/>
		<path style="fill:#FFFFFF;" d="M358.832,241.724l5.666,3.833l3.833-5.666c0.39-0.576,1.172-0.727,1.748-0.337
			c0.576,0.39,0.727,1.172,0.337,1.748l-3.833,5.666l5.666,3.833c0.576,0.389,0.727,1.172,0.337,1.748
			c-0.39,0.576-1.172,0.727-1.748,0.337l-5.666-3.833l-3.833,5.666c-0.389,0.576-1.172,0.727-1.748,0.337
			c-0.576-0.39-0.727-1.172-0.337-1.748l3.833-5.666l-5.666-3.833c-0.576-0.39-0.727-1.172-0.337-1.748
			C357.474,241.485,358.256,241.334,358.832,241.724z"/>
		
			<line style="fill:none;stroke:#E1ECFA;stroke-linecap:round;stroke-miterlimit:10;" x1="170.963" y1="189.107" x2="170.963" y2="339.927"/>
	</g>
	<g>
		<g>
			<polygon id="_x3C_Path_x3E__00000065791273338628814670000008304693796846833338_" style="fill:#F3D6C1;" points="
				164.176,398.825 163.98,405.153 155.82,405.112 155.851,398.784 			"/>
			<path id="_x3C_Path_x3E__00000016764438422645085900000004044118774563490749_" style="fill:#2F526E;" d="M155.82,405.112
				l7.981,0.04c0.122,0.001,0.236,0.014,0.354,0.042c1.139,0.273,7.626,1.909,13.338,5.068c1.42,0.785,0.838,2.956-0.785,2.948
				l-19.354-0.096c-0.87-0.004-1.572-0.713-1.567-1.583L155.82,405.112z"/>
			<polygon id="_x3C_Path_x3E__00000106836655100406410490000008878146768929687680_" style="fill:#F3D6C1;" points="
				121.127,393.263 117.202,398.83 110.437,394.267 113.975,389.02 			"/>
			<path id="_x3C_Path_x3E_" style="fill:#315780;" d="M110.437,394.267l6.617,4.463c0.101,0.068,0.189,0.143,0.271,0.232
				c0.796,0.859,5.284,5.82,8.282,11.619c0.745,1.442-0.944,2.924-2.289,2.017l-16.045-10.822c-0.721-0.486-0.911-1.465-0.425-2.187
				L110.437,394.267z"/>
			<path style="fill:#F0C66C;" d="M134.621,320.896c-1.342-0.185-2.559,0.803-2.643,2.156c-0.465,7.474-2.072,29.513-5.199,35.826
				l-14.749,26.907c-0.595,1.085-0.238,2.445,0.813,3.098l8.874,5.515c1.079,0.671,2.497,0.352,3.187-0.715l17.439-27.029
				c0.162-0.252,0.275-0.532,0.331-0.826l7.694-40.284c0.25-1.31-0.648-2.562-1.969-2.744L134.621,320.896z"/>
			<path style="fill:#F0C66C;" d="M159.507,322.035l7.723,75.561c0.159,1.558-1.063,2.912-2.63,2.912h-9.825
				c-1.357,0-2.493-1.027-2.63-2.377l-5.535-54.712c-0.009-0.089-0.014-0.177-0.014-0.266V321.49c0-1.571,1.361-2.795,2.923-2.628
				l7.637,0.813C158.4,319.808,159.38,320.792,159.507,322.035z"/>
			
				<line style="fill:none;stroke:#E69724;stroke-width:0.5;stroke-linecap:round;stroke-miterlimit:10;" x1="146.729" y1="344.594" x2="148.921" y2="323.962"/>
			<path style="fill:none;stroke:#E69724;stroke-width:0.5;stroke-linecap:round;stroke-miterlimit:10;" d="M147.695,335.504
				l2.632-0.817c0.784-0.243,1.319-0.969,1.319-1.79v-9.344"/>
			
				<line style="fill:none;stroke:#E69724;stroke-width:0.5;stroke-linecap:round;stroke-miterlimit:10;" x1="114.785" y1="386.476" x2="122.209" y2="391.24"/>
			
				<line style="fill:none;stroke:#E69724;stroke-width:0.5;stroke-linecap:round;stroke-miterlimit:10;" x1="155.82" y1="397.223" x2="164.644" y2="397.223"/>
			<polyline style="fill:none;stroke:#E69724;stroke-width:0.5;stroke-linecap:round;stroke-miterlimit:10;" points="
				134.597,325.944 131.94,356.475 116.184,384.472 			"/>
			
				<line style="fill:none;stroke:#E69724;stroke-width:0.5;stroke-linecap:round;stroke-miterlimit:10;" x1="149.67" y1="340.638" x2="154.996" y2="394.267"/>
			<path style="fill:#E8BFA5;" d="M164.62,275.396l6.882,0.116l10.063-20.727c0,0-3.003-1.993-3.794-4.436
				c-0.792-2.443-0.338-3.196,0.311-3.058s1.98,2.876,3.222,2.892c1.242,0.016,1.384-0.762,0.978-4.416
				c-0.406-3.654-0.618-5.323,0.327-5.849c0.945-0.526,1.938,1.691,1.938,1.691s0.627-0.861,1.504-0.784
				c0.878,0.076,1.047,1.074,1.047,1.074s0.446-0.492,1.436-0.284c0.99,0.208,1.059,1.411,1.059,1.411s0.952-1.107,1.86,0.661
				c0.908,1.769,2.987,7.937-3.54,13.008c0,0-6.628,29.287-9.344,30.645c-2.717,1.358-11.877,2.683-11.877,2.683L164.62,275.396z"/>
			<path style="fill:#2E506E;" d="M151.215,275.716l15.318-0.865c0.619-0.035,1.156,0.416,1.223,1.033
				c0.223,2.055,0.653,6.556,0.525,9.62c-0.024,0.565-0.449,1.026-1.009,1.102l-0.869,0.118c-0.434,0.059-0.744-0.022-0.99-0.21
				L151.215,275.716z"/>
			<path style="fill:#F3D6C1;" d="M155.943,244.418c0,0,0.235,2.586,2.998,8.078c2.821,5.608,1.917,13.919-2.433,15.546
				c-3.386,1.267-5.811,0.526-5.811,0.526l-2.429,11.895l-10.502-3.105l1.523-11.705l-2.165-16.989L155.943,244.418z"/>
			<path style="fill:#2F5482;" d="M138.854,267.032l3.229-3.523c0.377-0.411,0.302-1.054-0.157-1.371
				c-1.117-0.771-2.842-2.308-2.62-4.332c0.325-2.966,3.636-3.9,5.879-1.266c0,0,0.418,1.668,1.578-4.577
				c1.16-6.245,6.179-1.263,8.864-3.705c2.685-2.442,4.44-3.817,4.092-6.305c-0.348-2.488-1.682-6.104-4.999-4.216
				c-3.317,1.888-3.236-2.269-6.823-0.747c-4.467,1.895-8.865-3.011-9.747,2.27c-0.882,5.281-6.813,1.206-5.431,5.629
				s-5.382,3.92-4.004,7.074c1.378,3.154-1.011,6.797,1.753,8.485c2.764,1.688,5.11,0.387,5.11,4.395
				C135.579,267.181,138.854,267.032,138.854,267.032z"/>
			<path style="fill:#E69724;" d="M206.313,261.542l-27.96,3.889c-1.294,0.18-2.489-0.723-2.669-2.017l-3.889-27.96
				c-0.18-1.294,0.723-2.489,2.017-2.669l27.96-3.889c1.294-0.18,2.489,0.723,2.669,2.017l3.889,27.96
				C208.51,260.167,207.607,261.362,206.313,261.542z"/>
			<path style="fill:#FFFFFF;" d="M182.462,256.775l17.535-2.439c0.769-0.107,1.305-0.817,1.198-1.585l0,0
				c-0.107-0.769-0.817-1.305-1.585-1.198l-17.534,2.439c-0.769,0.107-1.305,0.817-1.198,1.586l0,0
				C180.984,256.345,181.693,256.882,182.462,256.775z"/>
			<path style="fill:#F3D6C1;" d="M165.384,283.797l6.598,1.958l15.254-17.267c0,0-2.358-2.726-2.465-5.291
				c-0.107-2.566,0.532-3.169,1.12-2.862c0.589,0.307,1.136,3.302,2.328,3.651c1.192,0.349,1.537-0.362,2.127-3.992
				c0.589-3.629,0.833-5.293,1.885-5.546c1.052-0.253,1.413,2.149,1.413,2.149s0.835-0.661,1.66-0.352
				c0.825,0.309,0.72,1.316,0.72,1.316s0.561-0.355,1.46,0.111c0.898,0.466,0.642,1.643,0.642,1.643s1.214-0.811,1.615,1.136
				c0.401,1.948,0.748,8.447-6.9,11.581c0,0-14.242,26.435-17.224,27.014c-2.981,0.579-12.162-0.602-12.162-0.602L165.384,283.797z"
				/>
			<path style="fill:#315780;" d="M132.518,323.962c-0.95,0-1.719-0.762-1.719-1.711c0.002-6.911,0.07-32.784,0.952-41.046
				c1.122-10.515,10.178-10.246,22.765-4.005l11.571,5.737c0.618,0.307,0.994,0.947,0.953,1.636
				c-0.169,2.813-0.695,10.156-1.749,13.863c-0.252,0.885-1.149,1.415-2.046,1.205c-1.409-0.329-3.335-0.78-3.335-0.78l0.625,23.336
				c0.026,0.967-0.751,1.765-1.718,1.765H132.518z"/>
			<path style="fill:none;stroke:#2E506E;stroke-width:0.5;stroke-linecap:round;stroke-miterlimit:10;" d="M159.91,298.861
				c0,0-17.379-6.468-16.96-14.73"/>
			<path style="fill:none;stroke:#2E506E;stroke-width:0.5;stroke-linecap:round;stroke-miterlimit:10;" d="M152.573,276.272
				c0,0-7.872-2.409-8.984,4.526"/>
			
				<line style="fill:none;stroke:#2E506E;stroke-width:0.5;stroke-linecap:round;stroke-miterlimit:10;" x1="164.62" y1="284.132" x2="162.923" y2="297.091"/>
			
				<line style="fill:none;stroke:#2E506E;stroke-width:0.5;stroke-linecap:round;stroke-miterlimit:10;" x1="162.304" y1="291.496" x2="161.563" y2="297.091"/>
			
				<line style="fill:none;stroke:#2E506E;stroke-width:0.5;stroke-linecap:round;stroke-miterlimit:10;" x1="157.439" y1="320.895" x2="134.597" y2="320.895"/>
			<path style="fill:#FFFFFF;" d="M180.515,242.774l17.534-2.439c0.769-0.107,1.305-0.817,1.198-1.586l0,0
				c-0.107-0.769-0.817-1.305-1.585-1.198l-17.535,2.439c-0.769,0.107-1.305,0.817-1.198,1.585l0,0
				C179.036,242.345,179.746,242.881,180.515,242.774z"/>
			<path style="fill:#FFFFFF;" d="M181.437,249.409l17.535-2.439c0.769-0.107,1.305-0.817,1.198-1.585l0,0
				c-0.107-0.769-0.817-1.305-1.585-1.198l-17.534,2.439c-0.769,0.107-1.305,0.817-1.198,1.586l0,0
				C179.959,248.98,180.669,249.516,181.437,249.409z"/>
		</g>
		<g>
			<polygon style="fill:#E6AE90;" points="345.368,337.71 346.992,352.02 334.465,358.619 324.399,347.055 328.526,336.806 			"/>
			<polygon style="fill:#F3D6C1;" points="312.201,361.18 308.562,382.322 316.62,386.158 322.51,361.18 			"/>
			<polygon style="fill:#F3D6C1;" points="362.952,361.904 365.766,379.143 359.453,386.082 351.05,360.492 			"/>
			<path style="fill:#F0C66C;" d="M344.39,344.653c0,0,14.923-3.836,17.225,7.216l1.927,9.256c0.089,0.426-0.259,0.815-0.692,0.768
				c-1.827-0.199-5.996-0.43-7.466,1.361l4.069,22.828l-7.149,9.172l-37.481-4.182l5.652-26.106c0,0-4.504-2.573-8.267-2.365
				c-0.866,0.048-1.555-0.695-1.413-1.551c0.863-5.222,4.494-19.323,18.17-14.566c0,0,0.595,9.356,8.635,8.267
				C345.87,353.63,344.39,344.653,344.39,344.653z"/>
			<path style="fill:#2E506E;" d="M319.907,394.375c0,0,5.816-3.034,12.895-2.908c7.08,0.126,11.631,2.276,16.815-0.759
				c5.183-3.034,10.174-6.645,13.335-8.921c3.161-2.276,7.778-5.365,12.456-1.952c4.678,3.413,2.149,16.815-5.942,19.722
				c-8.091,2.908-22.377,8.218-32.997,7.459C325.849,406.259,319.907,394.375,319.907,394.375z"/>
			<path style="fill:#F3D6C1;" d="M343.549,402.719l6.729,2.851c0,0,0.224,3.976,0.604,5.366c0.379,1.391,0,2.276,0,2.276
				s-10.171-0.317-13.114-4.015L343.549,402.719z"/>
			<path style="fill:#E69724;" d="M350.882,413.213c0,0,18.205,0,22.377-3.666c4.172-3.666,2.781-7.333-3.793-9.988
				c0,0-12.739,4.845-19.188,6.012L350.882,413.213z"/>
			<path style="fill:#E69724;" d="M315.23,400.191c0,0-7.838-4.678-10.746,2.276c-2.908,6.953,7.838,10.241,15.424,9.608
				c7.586-0.632,14.033-3.413,14.033-3.413L315.23,400.191z"/>
			<path style="fill:#F3D6C1;" d="M345.368,329.579c0,0,1.175,11.253-4.014,16.441c-1.821,1.821-4.613,2.278-7.001,1.313
				c-3.562-1.44-8.352-5.577-7.565-17.447l6.98-9.957C333.769,319.93,344.444,329.989,345.368,329.579z"/>
			<path style="fill:#315780;" d="M343.549,402.719c0,0-20.986-12.322-25.664-16.115c-4.678-3.793-13.907-10.269-19.343-5.042
				c-5.436,5.227-1.458,11.736,3.919,14.582c5.17,2.737,20.148,10.845,32.306,14.388c0.885,0.258,1.838-0.032,2.452-0.72
				L343.549,402.719z"/>
			<path style="fill:#2E506E;" d="M334.628,323.613c1.444,2.039,4.724,6.223,7.786,6.978c0.601,0.148,1.008,0.704,1.017,1.323
				c0.069,4.432,0.476,19.749,2.818,23.385c2.746,4.263,8.014,0.262,11.282-2.572c3.268-2.833-5.475-18.665-5.475-25.468
				c0-6.803-6.471-17.006-16.757-15.928c-10.287,1.078-12.526,8.296-13.605,16.26c-1.078,7.964-6.056,8.13-6.139,15.347
				c-0.083,7.217-0.918,10.123,2.816,12.279c3.733,2.157,8.964,3.648,9.96-1.827c0.995-5.475,1.493-9.54,0.332-15.181
				c-0.919-4.463,2.876-11.699,4.502-14.527C333.482,323.13,334.26,323.093,334.628,323.613z"/>
			<path style="fill:#E69724;" d="M359.452,363.515l-0.636,20.892c-0.037,1.224-1.04,2.197-2.265,2.197h-38.666
				c-1.217,0-2.217-0.962-2.264-2.178l-0.795-20.542c-0.049-1.277,0.967-2.343,2.245-2.354l40.097-0.349
				C358.454,361.169,359.491,362.23,359.452,363.515z"/>
			<path style="fill:#F0C66C;" d="M334.164,374.483c0,2.234,1.811,4.045,4.045,4.045c2.234,0,4.045-1.811,4.045-4.045
				c0-2.234-1.811-4.045-4.045-4.045C335.975,370.438,334.164,372.249,334.164,374.483z"/>
		</g>
	</g>
	
		<line style="fill:none;stroke:#315782;stroke-linecap:round;stroke-miterlimit:10;" x1="86.193" y1="412.67" x2="418.017" y2="412.67"/>
	<g>
		<g id="_x3C_Path_x3E__00000095322708980655690980000006772969076360295860_">
			<path id="_x3C_Path_x3E__00000155832235555076318270000014337536047014386863_" style="fill:#BAD4EF;" d="M355.332,144.727
				l-13.442,11.122c-1.519,1.257-3.818,0.708-4.607-1.098l-17.079-39.136L355.332,144.727z"/>
			<path id="_x3C_Path_x3E__00000116204986555068493970000006519900426377634471_" style="fill:#BAD4EF;" d="M360.115,141.022
				l-39.911-25.407l50.962,15.61c1.04,0.319,1.239,1.705,0.33,2.303L360.115,141.022z"/>
			<polygon id="_x3C_Path_x3E__00000000183530925818615900000002668975611055008151_" style="fill:#315782;" points="
				355.332,144.727 359.427,154.151 360.115,141.022 320.205,115.615 			"/>
			<polygon id="_x3C_Path_x3E__00000150075215100730796150000012629298655949426569_" style="fill:#2E506E;" points="
				351.789,147.66 359.427,154.151 355.332,144.727 			"/>
		</g>
		<g>
			<g>
				<path style="fill:none;stroke:#315782;stroke-linecap:round;stroke-miterlimit:10;" d="M364.733,156.013
					c0,0,0.834,0.423,2.246,1.093"/>
				<path style="fill:none;stroke:#315782;stroke-linecap:round;stroke-miterlimit:10;stroke-dasharray:5.0554,5.0554;" d="
					M371.578,159.204c8.888,3.893,23.707,9.445,27.439,5.064c5.425-6.368-6.062-13.21-8.143-6.011s31.073,7.765,22.718,22.797
					c-4.445,7.998-15.331-10.973,2.595-6.431c10.404,2.636,8.875,18.127,2.726,27.108c-2.227,3.253-5.493,5.144-8.199,6.222"/>
				<path style="fill:none;stroke:#315782;stroke-linecap:round;stroke-miterlimit:10;" d="M408.319,208.763
					c-1.463,0.41-2.439,0.531-2.439,0.531"/>
			</g>
		</g>
	</g>
</g>
</svg>
